<?xml version="1.0" encoding="UTF-8"?>
<svg width="197.8px" height="50px" viewBox="0 0 197.8 50" version="1.1" xmlns="http://www.w3.org/2000/svg" xmlns:xlink="http://www.w3.org/1999/xlink">
    <title>Logo</title>
    <g id="Homepage---Desktop" stroke="none" stroke-width="1" fill="none" fill-rule="evenodd">
        <g id="Homepage---full" transform="translate(-873.880000, -84.000000)">
            <g id="Hero" transform="translate(-111.000000, -69.000000)">
                <g id="Logo" transform="translate(984.880000, 153.000000)">
                    <circle id="Oval" fill="#1D2B47" cx="100.12" cy="25" r="25"></circle>
                    <g id="electric.1" transform="translate(82.120000, 8.000000)" fill="#CFEDFF" fill-rule="nonzero">
                        <path d="M17.5,35 C7.84482759,35 0,27.1551724 0,17.5 C0,7.84482759 7.84482759,0 17.5,0 C27.1551724,0 35,7.84482759 35,17.5 C35,27.1551724 27.1551724,35 17.5,35 Z M17.5,1.50862069 C8.59913793,1.50862069 1.50862069,8.59913793 1.50862069,17.5 C1.50862069,26.4008621 8.75,33.4913793 17.5,33.4913793 C26.4008621,33.4913793 33.4913793,26.25 33.4913793,17.5 C33.4913793,8.59913793 26.4008621,1.50862069 17.5,1.50862069 Z" id="Shape"></path>
                        <path d="M17.1989247,28.2258065 C17.1989247,28.2258065 17.0483871,28.2258065 17.0483871,28.2258065 C16.7473118,28.0733321 16.4462366,27.7683833 16.4462366,27.4634345 L16.7473118,20.1446636 L10.8763441,20.1446636 C10.5752688,20.1446636 10.4247312,19.9921892 10.2741935,19.8397148 C10.1236559,19.5347661 10.1236559,19.3822917 10.2741935,19.0773429 L17.0483871,6.57444265 C17.1989247,6.26949386 17.6505376,6.11701947 17.9516129,6.26949386 C18.2526882,6.42196826 18.5537634,6.72691704 18.5537634,7.03186583 L18.2526882,14.3506367 L24.1236559,14.3506367 C24.4247312,14.3506367 24.5752688,14.5031111 24.7258065,14.6555855 C24.8763441,14.9605343 24.8763441,15.1130087 24.7258065,15.4179574 L17.9516129,27.9208577 C17.8010753,28.0733321 17.5,28.2258065 17.1989247,28.2258065 Z M12.2311828,18.6199197 L17.6505376,18.6199197 C17.8010753,18.6199197 18.1021505,18.7723941 18.2526882,18.9248685 C18.4032258,19.0773429 18.4032258,19.2298173 18.4032258,19.5347661 L18.1021505,24.4139466 L22.7688172,16.027855 L17.3494624,16.027855 C17.1989247,16.027855 16.8978495,15.8753806 16.7473118,15.7229062 C16.5967742,15.5704318 16.5967742,15.4179574 16.5967742,15.1130087 L16.8978495,10.2338281 L12.2311828,18.6199197 Z" id="Shape"></path>
                    </g>
                    <line x1="140.62" y1="24.5" x2="156.62" y2="24.5" id="Line-2" stroke="#FCB332" stroke-width="2" stroke-linecap="square"></line>
                    <g id="Glo" transform="translate(173.000000, 18.128000)" fill="#1D2B47" fill-rule="nonzero">
                        <path d="M9.072,6.32 L9.856,6.32 L9.856,10.512 C9.36533333,10.9813333 8.77066667,11.3386667 8.072,11.584 C7.37333333,11.8293333 6.63466667,11.952 5.856,11.952 C4.74666667,11.952 3.74666667,11.7066667 2.856,11.216 C1.96533333,10.7253333 1.26666667,10.048 0.76,9.184 C0.253333333,8.32 0,7.34933333 0,6.272 C0,5.19466667 0.253333333,4.224 0.76,3.36 C1.26666667,2.496 1.96533333,1.81866667 2.856,1.328 C3.74666667,0.837333333 4.752,0.592 5.872,0.592 C6.69333333,0.592 7.448,0.722666667 8.136,0.984 C8.824,1.24533333 9.41333333,1.62666667 9.904,2.128 L9.392,2.672 C8.92266667,2.20266667 8.39733333,1.864 7.816,1.656 C7.23466667,1.448 6.592,1.344 5.888,1.344 C4.928,1.344 4.06133333,1.55733333 3.288,1.984 C2.51466667,2.41066667 1.90933333,3 1.472,3.752 C1.03466667,4.504 0.816,5.344 0.816,6.272 C0.816,7.18933333 1.03733333,8.024 1.48,8.776 C1.92266667,9.528 2.528,10.12 3.296,10.552 C4.064,10.984 4.928,11.2 5.888,11.2 C7.168,11.2 8.22933333,10.8586667 9.072,10.176 L9.072,6.32 Z" id="Path"></path>
                        <polygon id="Path" points="13.184 0 13.984 0 13.984 11.872 13.184 11.872"></polygon>
                        <path d="M20.624,11.936 C19.8346667,11.936 19.1226667,11.7546667 18.488,11.392 C17.8533333,11.0293333 17.3546667,10.5253333 16.992,9.88 C16.6293333,9.23466667 16.448,8.50666667 16.448,7.696 C16.448,6.88533333 16.6293333,6.15733333 16.992,5.512 C17.3546667,4.86666667 17.8533333,4.36266667 18.488,4 C19.1226667,3.63733333 19.8346667,3.456 20.624,3.456 C21.4133333,3.456 22.1253333,3.63733333 22.76,4 C23.3946667,4.36266667 23.8933333,4.86666667 24.256,5.512 C24.6186667,6.15733333 24.8,6.88533333 24.8,7.696 C24.8,8.50666667 24.6186667,9.23466667 24.256,9.88 C23.8933333,10.5253333 23.3946667,11.0293333 22.76,11.392 C22.1253333,11.7546667 21.4133333,11.936 20.624,11.936 Z M20.624,11.216 C21.264,11.216 21.8373333,11.0666667 22.344,10.768 C22.8506667,10.4693333 23.2506667,10.0533333 23.544,9.52 C23.8373333,8.98666667 23.984,8.37866667 23.984,7.696 C23.984,7.01333333 23.8373333,6.40533333 23.544,5.872 C23.2506667,5.33866667 22.8506667,4.92266667 22.344,4.624 C21.8373333,4.32533333 21.264,4.176 20.624,4.176 C19.984,4.176 19.4106667,4.32533333 18.904,4.624 C18.3973333,4.92266667 17.9973333,5.33866667 17.704,5.872 C17.4106667,6.40533333 17.264,7.01333333 17.264,7.696 C17.264,8.37866667 17.4106667,8.98666667 17.704,9.52 C17.9973333,10.0533333 18.3973333,10.4693333 18.904,10.768 C19.4106667,11.0666667 19.984,11.216 20.624,11.216 Z" id="Shape"></path>
                    </g>
                    <g id="Glo" transform="translate(0.000000, 18.128000)" fill="#1D2B47" fill-rule="nonzero">
                        <path d="M9.072,6.32 L9.856,6.32 L9.856,10.512 C9.36533333,10.9813333 8.77066667,11.3386667 8.072,11.584 C7.37333333,11.8293333 6.63466667,11.952 5.856,11.952 C4.74666667,11.952 3.74666667,11.7066667 2.856,11.216 C1.96533333,10.7253333 1.26666667,10.048 0.76,9.184 C0.253333333,8.32 0,7.34933333 0,6.272 C0,5.19466667 0.253333333,4.224 0.76,3.36 C1.26666667,2.496 1.96533333,1.81866667 2.856,1.328 C3.74666667,0.837333333 4.752,0.592 5.872,0.592 C6.69333333,0.592 7.448,0.722666667 8.136,0.984 C8.824,1.24533333 9.41333333,1.62666667 9.904,2.128 L9.392,2.672 C8.92266667,2.20266667 8.39733333,1.864 7.816,1.656 C7.23466667,1.448 6.592,1.344 5.888,1.344 C4.928,1.344 4.06133333,1.55733333 3.288,1.984 C2.51466667,2.41066667 1.90933333,3 1.472,3.752 C1.03466667,4.504 0.816,5.344 0.816,6.272 C0.816,7.18933333 1.03733333,8.024 1.48,8.776 C1.92266667,9.528 2.528,10.12 3.296,10.552 C4.064,10.984 4.928,11.2 5.888,11.2 C7.168,11.2 8.22933333,10.8586667 9.072,10.176 L9.072,6.32 Z" id="Path"></path>
                        <polygon id="Path" points="13.184 0 13.984 0 13.984 11.872 13.184 11.872"></polygon>
                        <path d="M20.624,11.936 C19.8346667,11.936 19.1226667,11.7546667 18.488,11.392 C17.8533333,11.0293333 17.3546667,10.5253333 16.992,9.88 C16.6293333,9.23466667 16.448,8.50666667 16.448,7.696 C16.448,6.88533333 16.6293333,6.15733333 16.992,5.512 C17.3546667,4.86666667 17.8533333,4.36266667 18.488,4 C19.1226667,3.63733333 19.8346667,3.456 20.624,3.456 C21.4133333,3.456 22.1253333,3.63733333 22.76,4 C23.3946667,4.36266667 23.8933333,4.86666667 24.256,5.512 C24.6186667,6.15733333 24.8,6.88533333 24.8,7.696 C24.8,8.50666667 24.6186667,9.23466667 24.256,9.88 C23.8933333,10.5253333 23.3946667,11.0293333 22.76,11.392 C22.1253333,11.7546667 21.4133333,11.936 20.624,11.936 Z M20.624,11.216 C21.264,11.216 21.8373333,11.0666667 22.344,10.768 C22.8506667,10.4693333 23.2506667,10.0533333 23.544,9.52 C23.8373333,8.98666667 23.984,8.37866667 23.984,7.696 C23.984,7.01333333 23.8373333,6.40533333 23.544,5.872 C23.2506667,5.33866667 22.8506667,4.92266667 22.344,4.624 C21.8373333,4.32533333 21.264,4.176 20.624,4.176 C19.984,4.176 19.4106667,4.32533333 18.904,4.624 C18.3973333,4.92266667 17.9973333,5.33866667 17.704,5.872 C17.4106667,6.40533333 17.264,7.01333333 17.264,7.696 C17.264,8.37866667 17.4106667,8.98666667 17.704,9.52 C17.9973333,10.0533333 18.3973333,10.4693333 18.904,10.768 C19.4106667,11.0666667 19.984,11.216 20.624,11.216 Z" id="Shape"></path>
                    </g>
                    <line x1="41.62" y1="25.5" x2="59.62" y2="25.5" id="Line" stroke="#FCB332" stroke-width="2" stroke-linecap="square"></line>
                </g>
            </g>
        </g>
    </g>
</svg>