<svg xmlns="http://www.w3.org/2000/svg" width="40" height="40" viewBox="0 0 40 40"><g fill="#00DEE2"><path d="M36.6822377,30 L13.3177623,30 C11.4891941,30 10,28.5107221 10,26.682051 L10,3.31794901 C10,1.48927787 11.4875056,0 13.3177623,0 L36.6822377,0 C38.5108059,0 40,1.48927787 40,3.31794901 L40,26.6837395 C40,28.5107221 38.5124944,30 36.6822377,30 Z M13.3177623,1.68852367 C12.4195182,1.68852367 11.6884286,2.41965442 11.6884286,3.31794901 L11.6884286,26.6837395 C11.6884286,27.5820341 12.4195182,28.3131649 13.3177623,28.3131649 L36.6822377,28.3131649 C37.5804818,28.3131649 38.3115714,27.5820341 38.3115714,26.6837395 L38.3115714,3.31794901 C38.3115714,2.41965442 37.5804818,1.68852367 36.6822377,1.68852367 L13.3177623,1.68852367 Z"/><path d="M26.6807361,40 L3.31757555,40 C1.48911025,40 0,38.5107221 0,36.682051 L0,13.3213261 C0,11.4892779 1.48742191,10 3.31757555,10 L11.0450785,10 C11.5110586,10 11.8892453,10.3782293 11.8892453,10.8442618 L11.8892453,26.483368 C11.8892453,27.3816626 12.6202938,28.1127934 13.5184873,28.1127934 L29.1558332,28.1127934 C29.6218133,28.1127934 30,28.4910227 30,28.9570552 L30,36.6837395 C29.9983117,38.5107221 28.5108898,40 26.6807361,40 Z M3.31757555,11.6885237 C2.41938207,11.6885237 1.68833361,12.4213429 1.68833361,13.3213261 L1.68833361,36.6837395 C1.68833361,37.5820341 2.41938207,38.3131649 3.31757555,38.3131649 L26.6824244,38.3131649 C27.5806179,38.3131649 28.3116664,37.5820341 28.3116664,36.6837395 L28.3116664,29.801317 L13.5184873,29.801317 C11.6900219,29.801317 10.2009117,28.3120392 10.2009117,26.483368 L10.2009117,11.6885237 L3.31757555,11.6885237 Z"/><path d="M27.5054174,23 L22.4912806,23 C22.0356,23 21.6657724,22.6301723 21.6657724,22.1744918 L21.6657724,18.3342276 L17.8255082,18.3342276 C17.3698277,18.3342276 17,17.9644 17,17.5087194 L17,12.4945826 C17,12.0389021 17.3698277,11.6690744 17.8255082,11.6690744 L21.6657724,11.6690744 L21.6657724,7.8255082 C21.6657724,7.36982768 22.0356,7 22.4912806,7 L27.5054174,7 C27.9610979,7 28.3309256,7.36982768 28.3309256,7.8255082 L28.3309256,11.6690744 L32.1744918,11.6690744 C32.6301723,11.6690744 33,12.0389021 33,12.4945826 L33,17.5087194 C33,17.9644 32.6301723,18.3342276 32.1744918,18.3342276 L28.3309256,18.3342276 L28.3309256,22.1744918 C28.3309256,22.6318233 27.9610979,23 27.5054174,23 Z M23.3167888,21.3489836 L26.6799092,21.3489836 L26.6799092,17.5087194 C26.6799092,17.0530389 27.0497369,16.6832112 27.5054174,16.6832112 L31.3489836,16.6832112 L31.3489836,13.3200908 L27.5054174,13.3200908 C27.0497369,13.3200908 26.6799092,12.9502631 26.6799092,12.4945826 L26.6799092,8.65101641 L23.3167888,8.65101641 L23.3167888,12.4945826 C23.3167888,12.9502631 22.9469611,13.3200908 22.4912806,13.3200908 L18.6510164,13.3200908 L18.6510164,16.6832112 L22.4912806,16.6832112 C22.9469611,16.6832112 23.3167888,17.0530389 23.3167888,17.5087194 L23.3167888,21.3489836 Z"/></g></svg>