<svg xmlns="http://www.w3.org/2000/svg" width="33" height="31" viewBox="0 0 33 31"><g fill="#00DEE2"><g transform="translate(1)"><g transform="translate(1.954)"><path d="M1.34267612 25.4995165 0 25.4995165C0 22.2608122 2.89078169 19.3545622 7.55792389 17.8816807 7.61297361 17.8408052 7.67473671 17.8067423 7.74187052 17.7863045 9.26312256 17.3162359 10.1210926 15.773866 10.3668023 13.0733562L11.7041077 13.1987078C11.4167751 16.3624736 10.2822137 18.3217739 8.32861998 19.024833 8.26954223 19.0711586 8.20240843 19.1079466 8.13124659 19.1283843 3.94343977 20.4023383 1.34267612 22.8439698 1.34267612 25.4995165ZM28.0941552 25.4995165 26.751479 25.4995165C26.751479 22.8439698 24.1507154 20.4037008 19.9655939 19.1283843 19.886376 19.103859 19.8152142 19.067071 19.7521084 19.0193829 17.8038854 18.3095113 16.6746948 16.352936 16.3927328 13.1973453L17.7300382 13.0747187C17.9703772 15.773866 18.8283472 17.3148734 20.3536273 17.7863045 20.4261318 17.8094673 20.4932656 17.8435302 20.5523434 17.8871308 25.2100869 19.3600123 28.0941552 22.2648998 28.0941552 25.4995165Z"/><path d="M14.0484203,15.3433105 C13.3958797,15.3433105 12.7567658,15.11577 12.2505769,14.7002022 L9.30071749,12.2681083 C8.63072211,11.7149262 8.24805941,10.8960531 8.24805941,10.0226793 L8.24805941,5.95011428 C8.24805941,5.84247539 8.25208744,5.7430116 8.26148617,5.63946027 C8.25343012,5.62311006 8.24805941,5.50184599 8.24805941,5.38330696 C8.24805941,2.41438115 10.8501657,0 14.0484203,0 C17.2453321,0 19.8460957,2.41438115 19.8460957,5.38330696 C19.8460957,5.50729606 19.840725,5.63537271 19.8313263,5.75936181 C19.836697,5.73892405 19.8460957,5.8438379 19.8460957,5.95011428 L19.8460957,10.0213168 C19.8460957,10.8946906 19.4620904,11.7135636 18.7934377,12.2653833 L15.8449209,14.6974771 C15.3373893,15.1144075 14.6996182,15.3433105 14.0484203,15.3433105 Z M14.0484203,1.36251758 C11.5899803,1.36251758 9.59073553,3.16649086 9.59073553,5.38330696 C9.59073553,5.48004571 9.59610624,5.57950949 9.60013427,5.67352321 C9.59207821,5.83293776 9.59073553,5.88880098 9.59073553,5.95011428 L9.59073553,10.0213168 C9.59073553,10.4832103 9.79347963,10.9164909 10.1492888,11.2094321 L13.0964629,13.6401635 C13.6281626,14.0761691 14.4633072,14.0788942 15.0017203,13.638801 L17.9475517,11.2094321 C18.3020182,10.9178534 18.5047623,10.4845728 18.5047623,10.0213168 L18.5047623,5.95011428 C18.5047623,5.8901635 18.5007343,5.83293776 18.4953636,5.77571203 C18.5007343,5.56724684 18.5047623,5.47459564 18.5047623,5.38330696 C18.5034196,3.16649086 16.5055176,1.36251758 14.0484203,1.36251758 Z"/></g><path d="M16.0006713,31 C9.95728612,31 4.27373809,28.6115067 0,24.2746132 L0.949272018,23.3113133 C4.970587,27.3906909 10.3157806,29.6374824 16.0006713,29.6374824 C21.6869047,29.6374824 27.0320984,27.3920534 31.050728,23.3113133 L32,24.2746132 C27.7289473,28.6115067 22.0467419,31 16.0006713,31 Z"/></g><g transform="translate(0 9)"><path d="M7.28838285,4.24621938 L1.04607721,4.24621938 C0.653264544,4.24621938 0.33446006,3.91224707 0.33446006,3.50074547 C0.33446006,3.08924388 0.653264544,2.75527157 1.04607721,2.75527157 L7.28838285,2.75527157 C7.68119552,2.75527157 8,3.08924388 8,3.50074547 C8,3.91224707 7.68119552,4.24621938 7.28838285,4.24621938 Z"/><polygon points="3.342 7 0 3.501 3.342 0 4.348 1.054 2.014 3.501 4.348 5.946"/></g></g></svg>