<svg xmlns="http://www.w3.org/2000/svg" width="37" height="29" viewBox="0 0 37 29"><g fill="none" fill-rule="evenodd"><g fill="#FFF" fill-rule="nonzero"><path d="M25.0704594 28C24.43697 28 23.8097371 27.8772697 23.2044027 27.634956 22.814924 27.479183 22.6178384 27.0417596 22.7554855 26.6436729 22.8946968 26.2471596 23.3185873 26.028448 23.7221435 26.1527517L23.9473842 26.2219842C24.2086009 26.2471596 24.3493763 26.1433109 24.391609 26.0064194 24.4432266 25.8317648 24.3321705 25.6382286 24.1444699 25.5784369 24.1429057 25.5784369 24.1413415 25.5784369 24.1413415 25.5784369 24.1413415 25.5784369 24.1413415 25.5784369 24.1413415 25.5784369L24.1397774 25.5784369C24.1319565 25.5752899 24.1241356 25.5737165 24.1163148 25.5705695 23.3295365 25.3140947 22.6616352 24.8373347 22.1611003 24.1811997 22.0046831 23.9766492 21.9593222 23.7075866 22.0375307 23.462126 22.1157393 23.2166654 22.3096966 23.0247027 22.5552715 22.9491763L28.8088295 21.034269C29.0059152 20.9729039 29.2217708 20.9949324 29.4047789 21.0924872 29.587787 21.1900421 29.7254341 21.3584029 29.7848726 21.558233 30.5810359 24.1922139 29.0982013 26.9898353 26.4782139 27.7923026 26.0183474 27.9291941 25.5459676 28 25.0704594 28ZM24.6090288 24.074204C25.5616093 24.3747359 26.1278394 25.3565783 25.9260613 26.3116717 25.9573447 26.3038044 25.9886282 26.2943636 26.0199116 26.2833493 27.5574923 25.8128832 28.5241503 24.3401197 28.4271717 22.7918298L24.4385341 24.0128389C24.491716 24.0332939 24.5448978 24.0521755 24.5996438 24.0694836L24.5980796 24.0694836 24.5996438 24.0694836C24.5996438 24.0694836 24.601208 24.0694836 24.6027721 24.0694836L24.6027721 24.0694836 24.6027721 24.0694836C24.6027721 24.0694836 24.6043363 24.0694836 24.6059005 24.0694836 24.6059005 24.074204 24.6074647 24.074204 24.6090288 24.074204L24.6090288 24.074204ZM12.6741863 29C12.1896454 29 11.6973143 28.9306821 11.2112153 28.7843444 8.55013494 27.983338 7.04665567 25.1921389 7.85526266 22.5626813 7.98146143 22.1560166 8.41770412 21.9280378 8.82746065 22.0497292 9.23877518 22.1745013 9.47091861 22.6042721 9.34627784 23.0109368 8.7869524 24.8286052 9.82770281 26.7571821 11.6645961 27.3101846 13.5030475 27.8631871 15.4521175 26.834202 16.0145589 25.0165336 16.1391997 24.6098688 16.5723264 24.3757285 16.9867569 24.5051218 17.3980715 24.6283536 17.6302149 25.0596647 17.5040161 25.4663295 16.840304 27.6121024 14.8351457 29 12.6741863 29Z"/><path d="M24.0990707,28.1681857 L24.0990707,28.1681857 C23.9074356,28.1681857 23.7173584,28.1389181 23.5335133,28.0850042 L1.36771068,21.4150856 C0.873821636,21.2687479 0.46718113,20.939103 0.224131633,20.4908475 C-0.0142438361,20.050294 -0.0641001433,19.5481246 0.0823527592,19.0752227 C0.370584535,18.1402018 1.38640679,17.5717954 2.36483682,17.8090165 C2.44429531,17.8182589 2.52219579,17.8398244 2.59230623,17.8706324 C3.80755371,18.160227 5.10537571,17.4177557 5.46839195,16.239352 L7.49536244,9.65723607 C8.56415702,6.18980264 11.6521321,3.68973846 15.2807364,3.29693725 L15.5206699,2.51903681 C16.0831114,0.693666482 18.1661702,-0.410798099 20.0248756,0.143744787 C21.9303214,0.719853229 23.010022,2.71620762 22.4304425,4.59857263 L22.190509,5.37493267 C24.9824622,7.69785121 26.1369473,11.4749044 25.0681527,14.946959 L23.0427402,21.5259942 C22.6547958,22.7844985 23.3730383,24.1231034 24.6443741,24.5112834 L24.6443741,24.5112834 C24.6443741,24.5112834 24.6459321,24.5112834 24.6459321,24.5112834 L24.6459321,24.5112834 C24.6490481,24.5128238 24.6537222,24.5128238 24.6568382,24.5143642 C25.6524063,24.8301456 26.2164058,25.8729943 25.921942,26.8480655 C25.6757765,27.6382891 24.943512,28.1681857 24.0990707,28.1681857 Z M1.95975433,19.3078227 C1.73228493,19.3078227 1.61076018,19.3987061 1.57180994,19.5234782 C1.54064975,19.6251444 1.56869392,19.7098663 1.5982961,19.7637802 C1.62478226,19.8130729 1.68866066,19.9008755 1.81953346,19.9393854 L24.0990707,26.6277888 C24.2533137,26.6277888 24.3888605,26.5338246 24.4293688,26.4013504 C24.4807831,26.2303664 24.3701644,26.0408975 24.1832033,25.9823625 L24.1769712,25.9808221 C24.1769712,25.9808221 24.1754132,25.9792817 24.1738552,25.9792817 C22.0939124,25.340017 20.9160571,23.143411 21.5517251,21.0777387 L23.5771375,14.4987035 C24.5103853,11.4718236 23.4041985,8.16459147 20.8256926,6.26990328 C20.562389,6.07581327 20.4486543,5.73846634 20.5452508,5.42730617 L20.9394273,4.14877674 C21.2681673,3.07974129 20.6543115,1.94292837 19.5714948,1.61636423 C18.5151643,1.29904247 17.331077,1.9306052 17.0132431,2.96575192 L16.6190667,4.24582174 C16.5224701,4.55698192 16.2404703,4.77571828 15.9117303,4.79112225 C12.7022305,4.94670234 9.91962538,7.08169244 8.98949364,10.1054916 L6.95784913,16.6876075 C6.33464529,18.7193911 4.08955345,19.9270622 2.01116864,19.3109035 C1.99403054,19.3093631 1.97689243,19.3078227 1.95975433,19.3078227 Z"/><path d="M3.02171317 27C2.79077731 27 2.56604107 26.8963296 2.41725017 26.709104 2.22506194 26.4708169 2.19251393 26.1427853 2.33200539 25.8720045L.549614498 25.3304428C.140439545 25.20511-.0904963183 24.773408.0334960917 24.3649158.159038407 23.9564236.589912032 23.7289677 1.00063689 23.8496586L1.00218679 23.8496586 1.00218679 23.8496586 4.8149534 25.0086005C5.14043348 25.1076289 5.36361982 25.4078088 5.36361982 25.7497663 5.36361982 26.0917238 5.14043348 26.3919036 4.8149534 26.4909321L3.24644942 26.9675063C3.17205397 26.9891688 3.09610862 27 3.02171317 27ZM9.42282134 25.05502C9.18568585 25.05502 8.9562999 24.9467077 8.807509 24.7501982 8.03255644 23.7367043 7.78922134 22.4091046 8.15654885 21.2021958L10.1714255 14.5935965C11.0998187 11.5531147 9.99938604 8.23102085 7.43429306 6.32781851 7.1723591 6.13285632 7.05921602 5.79399346 7.15531014 5.48143503L7.54743614 4.19716028C7.61098225 3.99136686 7.63578073 3.76700561 7.62183158 3.50860334 7.60323272 3.11867896 7.87911583 2.77672147 8.2634923 2.70863943 8.6556183 2.64674667 9.02449572 2.87110792 9.1376388 3.24555911L9.1376388 3.24710643C12.6683227 3.63857813 15.6720388 6.09572066 16.7120251 9.50291704L18.6804046 15.9660684C19.0446324 17.1590513 20.3326035 17.8770073 21.5430794 17.5335025 21.5554787 17.5288606 21.5678779 17.5257659 21.5802771 17.521124 22.5551675 17.2317753 23.6261519 17.7934521 23.919084 18.7496952 24.0632251 19.2200802 24.0136282 19.7183169 23.7795925 20.1531135 23.5409071 20.5971941 23.1410316 20.9236784 22.6543614 21.0691264L9.64910749 25.020979C9.57316214 25.0441888 9.49721678 25.05502 9.42282134 25.05502ZM8.79046005 5.42882619C11.56789 7.7621832 12.7163697 11.5562093 11.6531348 15.0438663L9.63825815 21.6524656C9.46466878 22.2203317 9.51581565 22.83307 9.76690028 23.3684424L22.2017891 19.5898894C22.3257815 19.5527538 22.3846779 19.4707459 22.4094764 19.4243263 22.4358248 19.3748121 22.4621732 19.2958988 22.432725 19.2015124 22.3955272 19.0761795 22.2668851 18.9895297 22.1227439 18.9895297L22.1149944 18.9740565C22.0917458 18.9833404 22.0684973 18.9926243 22.0452487 18.9988136 20.0164229 19.6223831 17.8109079 18.4309475 17.1955955 16.4194329L15.227216 9.9562815C14.3685686 7.14789757 11.89492 5.12090971 8.98419819 4.78978345L8.79046005 5.42882619ZM2.86052304 3.6029898C2.80007674 3.6029898 2.73808053 3.5952532 2.67763423 3.57823269 2.273109 3.46682573 2.01582475 3.10320577 2.11501867 2.69626088 2.40950065 1.48780476 3.32549458.511446488 4.50652228.152468486 5.15748243-.0471356617 5.85493974-.0502302997 6.5089997.140089934 6.88562665.192698779 7.173909.516088445 7.173909.906012826 7.173909 1.33771482 6.8112312 1.64098934 6.3881071 1.67967231 6.31216175 1.68431427 6.23156669 1.67193572 6.15407143 1.64872593 5.10323576 1.34545141 3.95010634 1.97985219 3.63702551 3.00881931 3.63237579 3.0242925 3.62772608 3.03976569 3.62152646 3.05369156 3.62152646 3.05523888 3.61997655 3.05833352 3.61997655 3.06142816L3.61997655 3.06142816C3.50063386 3.37708123 3.18755302 3.6029898 2.86052304 3.6029898Z" transform="translate(13)"/></g><circle cx="27.5" cy="5.5" r="4.5" fill="#FF2100" stroke="#1E1F25" stroke-width="2"/></g></svg>