<svg xmlns="http://www.w3.org/2000/svg" width="8" height="25" viewBox="0 0 8 25"><path fill="#00DEE2" d="M3.285 6.572C1.473 6.572 5.68434189e-14 5.097 5.68434189e-14 3.286 5.68434189e-14 1.475 1.474 0 3.285 0 5.097 0 6.572 1.475 6.572 3.286 6.572 5.097 5.097 6.572 3.285 6.572ZM3.285 1C2.025 1 1 2.025 1 3.286 1 4.547 2.025 5.572 3.285 5.572 4.546 5.572 5.572 4.547 5.572 3.286 5.572 2.025 4.546 1 3.285 1ZM11.934 6.572C10.122 6.572 8.649 5.097 8.649 3.286 8.649 1.475 10.123 0 11.934 0 13.746 0 15.221 1.475 15.221 3.286 15.221 5.097 13.747 6.572 11.934 6.572ZM11.934 1C10.674 1 9.649 2.025 9.649 3.286 9.649 4.547 10.674 5.572 11.934 5.572 13.195 5.572 14.221 4.547 14.221 3.286 14.221 2.025 13.195 1 11.934 1ZM20.583 6.572C18.771 6.572 17.298 5.097 17.298 3.286 17.298 1.475 18.772 0 20.583 0 22.395 0 23.87 1.475 23.87 3.286 23.87 5.097 22.396 6.572 20.583 6.572ZM20.583 1C19.323 1 18.298 2.025 18.298 3.286 18.298 4.547 19.323 5.572 20.583 5.572 21.844 5.572 22.87 4.547 22.87 3.286 22.87 2.025 21.845 1 20.583 1Z" transform="rotate(90 3.435 3.786)"/></svg>