<svg xmlns="http://www.w3.org/2000/svg" width="20" height="20" viewBox="0 0 20 20"><g fill="#00DEE2"><path d="M17.9064998,20 L2.09266312,20 C0.93918721,20 0,19.061532 0,17.9070741 L0,2.09292591 C0,0.938467978 0.93918721,0 2.09266312,0 L17.9073369,0 C19.0608128,0 20,0.938467978 20,2.09292591 L20,17.9079113 C19.9991629,19.061532 19.0608128,20 17.9064998,20 Z M2.09266312,0.837170364 C1.40041016,0.837170364 0.837065249,1.40058602 0.837065249,2.09292591 L0.837065249,17.9079113 C0.837065249,18.6002512 1.40041016,19.1636668 2.09266312,19.1636668 L17.9073369,19.1636668 C18.5995898,19.1636668 19.1629348,18.6002512 19.1629348,17.9079113 L19.1629348,2.09292591 C19.1629348,1.40058602 18.5995898,0.837170364 17.9073369,0.837170364 L2.09266312,0.837170364 Z"/><path d="M15.5616598,9 L4.43834015,9 C4.19637639,9 4,8.81112985 4,8.57841484 L4,0.42158516 C4,0.188870152 4.19637639,0 4.43834015,0 L15.5616598,0 C15.8036236,0 16,0.188870152 16,0.42158516 L16,8.57841484 C16,8.81112985 15.8036236,9 15.5616598,9 Z M4.8766803,8.15682968 L15.1233197,8.15682968 L15.1233197,0.84317032 L4.8766803,0.84317032 L4.8766803,8.15682968 Z"/><g transform="translate(9 5)"><rect width="1" height="2"/><rect width="1" height="2" x="1.543"/><rect width="1" height="2" x="3.086"/></g></g></svg>