<svg xmlns="http://www.w3.org/2000/svg" width="51" height="51" viewBox="0 0 51 51"><g fill="#7F8091"><path d="M18,36 C8.24096386,36 0,27.9759036 0,18 C0,8.02409639 8.02409639,0 18,0 C27.9759036,0 36,8.02409639 36,18 C36,27.9759036 27.9759036,36 18,36 Z M18,2.38554217 C9.3253012,2.38554217 2.1686747,9.54216867 2.1686747,18.2168675 C2.1686747,26.8915663 9.3253012,34.0481928 18,34.0481928 C26.6746988,34.0481928 33.8313253,26.8915663 33.8313253,18.2168675 C33.8313253,9.3253012 26.6746988,2.38554217 18,2.38554217 Z"/><g transform="translate(13.88 7.807)"><g transform="translate(0 1.735)"><path d="M4.12048193,9.54216867 C1.73493976,9.54216867 0,7.59036145 0,5.42168675 L0,4.12048193 C0,1.73493976 1.95180723,0 4.12048193,0 C6.28915663,0 8.24096386,1.95180723 8.24096386,4.12048193 C8.24096386,4.77108434 7.80722892,5.20481928 7.15662651,5.20481928 C6.5060241,5.20481928 6.07228916,4.77108434 6.07228916,4.12048193 C6.07228916,3.03614458 5.20481928,2.1686747 4.12048193,2.1686747 C3.03614458,2.1686747 2.1686747,3.03614458 2.1686747,4.12048193 L2.1686747,5.20481928 C2.1686747,6.28915663 3.03614458,7.15662651 4.12048193,7.15662651 C4.77108434,7.15662651 5.20481928,7.59036145 5.20481928,8.24096386 C5.20481928,8.89156627 4.77108434,9.54216867 4.12048193,9.54216867 Z"/><path d="M4.12048193,16.9156627 C1.73493976,16.9156627 0,14.9638554 0,12.7951807 C0,12.1445783 0.43373494,11.7108434 1.08433735,11.7108434 C1.73493976,11.7108434 2.1686747,12.1445783 2.1686747,12.7951807 C2.1686747,13.8795181 3.03614458,14.746988 4.12048193,14.746988 C5.20481928,14.746988 6.07228916,13.8795181 6.07228916,12.7951807 L6.07228916,11.7108434 C6.07228916,10.626506 5.20481928,9.75903614 4.12048193,9.75903614 C3.46987952,9.75903614 3.03614458,9.3253012 3.03614458,8.6746988 C3.03614458,8.02409639 3.46987952,7.59036145 4.12048193,7.59036145 C6.5060241,7.59036145 8.24096386,9.54216867 8.24096386,11.7108434 L8.24096386,12.7951807 C8.24096386,14.9638554 6.5060241,16.9156627 4.12048193,16.9156627 Z"/></g><path d="M1.08433735 3.68674699C.43373494 3.68674699 0 3.25301205 0 2.60240964L0 1.08433735C0 .43373494.43373494 0 1.08433735 0 1.73493976 0 2.1686747.43373494 2.1686747 1.08433735L2.1686747 2.60240964C2.1686747 3.25301205 1.73493976 3.68674699 1.08433735 3.68674699ZM1.08433735 20.3855422C.43373494 20.3855422 0 19.9518072 0 19.3012048L0 17.7831325C0 17.1325301.43373494 16.6987952 1.08433735 16.6987952 1.73493976 16.6987952 2.1686747 17.1325301 2.1686747 17.7831325L2.1686747 19.3012048C2.1686747 19.9518072 1.73493976 20.3855422 1.08433735 20.3855422Z" transform="translate(3.036)"/></g><path d="M1.08433735 2.60240964C.43373494 2.60240964 0 2.1686747 0 1.51807229L0 1.08433735C0 .43373494.43373494 0 1.08433735 0 1.73493976 0 2.1686747.43373494 2.1686747 1.08433735L2.1686747 1.30120482C2.1686747 1.95180723 1.73493976 2.60240964 1.08433735 2.60240964ZM1.08433735 28.1927711C.43373494 28.1927711 0 27.7590361 0 27.1084337L0 26.8915663C0 26.2409639.43373494 25.8072289 1.08433735 25.8072289 1.73493976 25.8072289 2.1686747 26.2409639 2.1686747 26.8915663L2.1686747 27.1084337C2.1686747 27.7590361 1.73493976 28.1927711 1.08433735 28.1927711Z" transform="translate(16.916 3.904)"/><path d="M19.4096386 2.27710843C19.1927711 2.27710843 18.7590361 2.27710843 18.5421687 2.06024096 18.1084337 1.62650602 18.1084337.975903614 18.5421687.542168675L18.7590361.325301205C19.1927711-.108433735 19.8433735-.108433735 20.2771084.325301205 20.7108434.759036145 20.7108434 1.40963855 20.2771084 1.84337349L20.060241 2.06024096C19.8433735 2.06024096 19.626506 2.27710843 19.4096386 2.27710843ZM1.19277108 20.2771084C.975903614 20.2771084.542168675 20.060241.325301205 19.8433735-.108433735 19.4096386-.108433735 18.7590361.325301205 18.3253012L.542168675 18.1084337C.975903614 17.6746988 1.62650602 17.6746988 2.06024096 18.1084337 2.4939759 18.5421687 2.4939759 19.1927711 2.06024096 19.626506L1.84337349 19.8433735C1.62650602 20.2771084 1.40963855 20.2771084 1.19277108 20.2771084Z" transform="translate(7.699 7.916)"/><path d="M27.1084337 2.1686747 26.8915663 2.1686747C26.2409639 2.1686747 25.8072289 1.73493976 25.8072289 1.08433735 25.8072289.43373494 26.2409639 0 26.8915663 0L27.1084337 0C27.7590361 0 28.1927711.43373494 28.1927711 1.08433735 28.1927711 1.73493976 27.7590361 2.1686747 27.1084337 2.1686747ZM1.51807229 2.1686747 1.08433735 2.1686747C.43373494 2.1686747 0 1.73493976 0 1.08433735 0 .43373494.43373494 0 1.08433735 0L1.30120482 0C1.95180723 0 2.60240964.43373494 2.60240964 1.08433735 2.60240964 1.73493976 1.95180723 2.1686747 1.51807229 2.1686747Z" transform="translate(3.904 16.916)"/><path d="M9.10843373,10.1927711 C8.89156627,10.1927711 8.45783133,10.1927711 8.24096386,9.97590361 L8.02409639,9.54216867 C7.59036145,9.10843373 7.59036145,8.45783133 8.02409639,8.02409639 C8.45783133,7.59036145 9.10843373,7.59036145 9.54216867,8.02409639 L9.75903614,8.24096386 C10.1927711,8.6746988 10.1927711,9.3253012 9.75903614,9.75903614 C9.54216867,9.97590361 9.3253012,10.1927711 9.10843373,10.1927711 Z"/><g transform="translate(23 22)"><g transform="translate(6.08)"><g transform="translate(0 2.778)"><path d="M4.05333333 9.4017094C1.70666667 9.4017094 0 7.47863248 0 5.34188034L0 3.41880342C0 2.77777778.426666667 2.35042735 1.06666667 2.35042735 1.70666667 2.35042735 2.13333333 2.77777778 2.13333333 3.41880342L2.13333333 5.34188034C2.13333333 6.41025641 2.98666667 7.26495726 4.05333333 7.26495726 4.69333333 7.26495726 5.12 7.69230769 5.12 8.33333333 5.12 8.97435897 4.69333333 9.4017094 4.05333333 9.4017094ZM7.04 5.12820513C6.4 5.12820513 5.97333333 4.7008547 5.97333333 4.05982906 5.97333333 2.99145299 5.12 2.13675214 4.05333333 2.13675214 3.41333333 2.13675214 2.98666667 1.70940171 2.98666667 1.06837607 2.98666667.427350427 3.41333333 0 4.05333333 0 6.4 0 8.10666667 1.92307692 8.10666667 4.05982906 8.10666667 4.7008547 7.68 5.12820513 7.04 5.12820513Z"/><path d="M4.05333333,16.6666667 C1.70666667,16.6666667 0,14.7435897 0,12.6068376 C0,11.965812 0.426666667,11.5384615 1.06666667,11.5384615 C1.70666667,11.5384615 2.13333333,11.965812 2.13333333,12.6068376 C2.13333333,13.6752137 2.98666667,14.5299145 4.05333333,14.5299145 C5.12,14.5299145 5.97333333,13.6752137 5.97333333,12.6068376 L5.97333333,11.5384615 C5.97333333,10.4700855 5.12,9.61538462 4.05333333,9.61538462 C3.41333333,9.61538462 2.98666667,9.18803419 2.98666667,8.54700855 C2.98666667,7.90598291 3.41333333,7.47863248 4.05333333,7.47863248 C6.4,7.47863248 8.10666667,9.4017094 8.10666667,11.5384615 L8.10666667,12.6068376 C8.10666667,14.7435897 6.4,16.6666667 4.05333333,16.6666667 Z"/></g><path d="M1.06666667 4.7008547C.426666667 4.7008547 0 4.27350427 0 3.63247863L0 1.06837607C0 .427350427.426666667 0 1.06666667 0 1.70666667 0 2.13333333.427350427 2.13333333 1.06837607L2.13333333 3.63247863C2.13333333 4.27350427 1.70666667 4.7008547 1.06666667 4.7008547ZM1.06666667 21.1538462C.426666667 21.1538462 0 20.7264957 0 20.0854701L0 18.5897436C0 17.9487179.426666667 17.5213675 1.06666667 17.5213675 1.70666667 17.5213675 2.13333333 17.9487179 2.13333333 18.5897436L2.13333333 20.0854701C2.13333333 20.7264957 1.70666667 21.1538462 1.06666667 21.1538462Z" transform="translate(2.987)"/></g><path d="M10.1333333,25 C9.49333333,25 9.06666667,24.5726496 9.06666667,23.9316239 L9.06666667,23.7179487 C9.06666667,23.0769231 9.49333333,22.6495726 10.1333333,22.6495726 C10.7733333,22.6495726 11.2,23.0769231 11.2,23.7179487 L11.2,23.9316239 C11.2,24.3589744 10.7733333,25 10.1333333,25 Z"/><path d="M18.88 2.24358974C18.6666667 2.24358974 18.24 2.24358974 18.0266667 2.02991453 17.6 1.6025641 17.6.961538462 18.0266667.534188034L18.24.320512821C18.6666667-.106837607 19.3066667-.106837607 19.7333333.320512821 20.16.747863248 20.16 1.38888889 19.7333333 1.81623932L19.52 2.02991453C19.52 2.24358974 19.3066667 2.24358974 18.88 2.24358974ZM1.17333333 20.1923077C.96 20.1923077.533333333 20.1923077.32 19.9786325-.106666667 19.5512821-.106666667 18.9102564.32 18.482906L.533333333 18.2692308C.96 17.8418803 1.6 17.8418803 2.02666667 18.2692308 2.45333333 18.6965812 2.45333333 19.3376068 2.02666667 19.7649573L1.81333333 19.9786325C1.6 20.1923077 1.38666667 20.1923077 1.17333333 20.1923077Z" transform="translate(0 .962)"/><path d="M22.9333333,12.1794872 L22.72,12.1794872 C22.08,12.1794872 21.6533333,11.7521368 21.6533333,11.1111111 C21.6533333,10.4700855 22.08,10.042735 22.72,10.042735 L22.9333333,10.042735 C23.5733333,10.042735 24,10.4700855 24,11.1111111 C24,11.7521368 23.36,12.1794872 22.9333333,12.1794872 Z"/><path d="M16.64 17.8418803C16.4266667 17.8418803 16 17.8418803 15.7866667 17.6282051L15.5733333 17.4145299C15.1466667 16.9871795 15.1466667 16.3461538 15.5733333 15.9188034 16 15.491453 16.64 15.491453 17.0666667 15.9188034L17.28 16.1324786C17.7066667 16.5598291 17.7066667 17.2008547 17.28 17.6282051 17.28 17.8418803 16.8533333 17.8418803 16.64 17.8418803ZM1.06666667 2.24358974C.853333333 2.24358974.426666667 2.02991453.426666667 2.02991453.213333333 1.81623932 0 1.6025641 0 1.17521368 0 .961538462.213333333.534188034.426666667.320512821.853333333-.106837607 1.49333333-.106837607 1.92.320512821 2.13333333.534188034 2.13333333.747863248 2.13333333 1.17521368 2.13333333 1.38888889 2.13333333 1.6025641 1.92 2.02991453 1.49333333 2.02991453 1.28 2.24358974 1.06666667 2.24358974Z" transform="translate(2.453 3.312)"/></g><path d="M33.3939394,51 C24.0606061,51 16.4242424,43.3827586 16,33.8067979 C16,33.5891625 16,33.1538915 16.2121212,32.936256 C16.4242424,32.7186206 16.6363636,32.5009851 17.0606061,32.7186206 L17.2727273,32.7186206 C17.4848485,32.7186206 17.4848485,32.7186206 17.6969697,32.7186206 C26.1818182,32.7186206 33.1818182,25.5366501 33.1818182,16.8312313 C33.1818182,16.6135958 33.1818182,16.6135958 33.1818182,16.3959604 L33.1818182,16.1783249 C33.1818182,15.9606894 33.1818182,15.5254185 33.3939394,15.307783 C33.6060606,15.0901476 34.030303,14.8725121 34.2424242,15.0901476 C43.5757576,15.5254185 51,23.3602954 51,32.936256 C50.7878788,42.9474876 42.9393939,51 33.3939394,51 Z M18.1212121,35.1126107 C18.969697,42.9474876 25.5454545,49.0412808 33.3939394,49.0412808 C41.8787879,49.0412808 48.8787879,41.8593103 48.8787879,33.1538915 C48.8787879,25.1013792 42.9393939,18.3546796 35.3030303,17.4841377 C35.0909091,27.0600984 27.4545455,34.8949753 18.1212121,35.1126107 Z"/></g></svg>