<svg xmlns="http://www.w3.org/2000/svg" width="51" height="42" viewBox="0 0 51 42"><g fill="#7F8091" transform="translate(0 .372)"><g transform="translate(0 13.927)"><g transform="translate(0 12.364)"><path d="M25.4637907,14.4951384 C25.4637907,14.4951384 25.4637907,14.4951384 25.4637907,14.4951384 L1.19383978,14.4951384 C0.771753681,14.4951384 0.560710629,14.2819746 0.349667577,14.0688108 C-0.0724185264,13.855647 -0.0724185264,13.4293194 0.138624525,13.0029918 L4.99261472,0.639491399 C5.20365777,0.2131638 5.62574387,0 6.04782997,0 L20.8208436,0 C21.2429297,0 21.6650158,0.2131638 21.8760589,0.639491399 L26.519006,12.789828 C26.730049,13.0029918 26.730049,13.2161556 26.730049,13.4293194 C26.519006,14.0688108 26.0969199,14.4951384 25.4637907,14.4951384 Z M2.67114115,12.3635004 L23.9864894,12.3635004 L19.9766714,2.131638 L6.68095913,2.131638 L2.67114115,12.3635004 Z"/><path d="M6.89200218 9.59237098C6.68095913 9.59237098 6.68095913 9.59237098 6.46991608 9.59237098 5.83678692 9.37920718 5.62574387 8.73971578 5.83678692 8.31338818L7.31408829 4.47643979C7.52513134 4.05011219 7.94721744 3.83694839 8.36930354 3.83694839L13.0122507 3.83694839C13.6453798 3.83694839 14.0674659 4.26327599 14.0674659 4.90276739 14.0674659 5.54225879 13.6453798 5.96858639 13.0122507 5.96858639L9.0024327 5.96858639 7.73617439 9.16604338C7.52513134 9.37920718 7.31408829 9.59237098 6.89200218 9.59237098ZM15.9668534 5.75542259C15.7558104 5.75542259 15.3337243 5.54225879 15.1226812 5.54225879 14.9116381 5.32909499 14.9116381 5.11593119 14.9116381 4.68960359 14.9116381 4.47643979 14.9116381 4.05011219 15.1226812 3.83694839 15.5447673 3.41062079 16.1778965 3.41062079 16.5999826 3.83694839 16.8110256 4.05011219 17.0220687 4.26327599 17.0220687 4.68960359 17.0220687 4.90276739 16.8110256 5.11593119 16.8110256 5.32909499 16.5999826 5.54225879 16.1778965 5.75542259 15.9668534 5.75542259Z"/><g transform="translate(24.409)"><path d="M25.5362093,14.4951384 C25.5362093,14.4951384 25.5362093,14.4951384 25.5362093,14.4951384 L1.05521526,14.4951384 C0.633129155,14.4951384 0.422086104,14.2819746 0.211043052,14.0688108 C0,13.855647 0,13.4293194 0,13.0029918 L4.85399019,0.639491399 C5.06503324,0.2131638 5.48711935,0 5.90920545,0 L20.6822191,0 C21.1043052,0 21.5263913,0.2131638 21.7374343,0.639491399 L26.3803815,12.789828 C26.5914245,13.0029918 26.5914245,13.2161556 26.5914245,13.4293194 C26.5914245,14.0688108 25.9582954,14.4951384 25.5362093,14.4951384 Z M2.53251662,12.3635004 L23.8478648,12.3635004 L19.8380469,2.131638 L6.5423346,2.131638 L2.53251662,12.3635004 Z"/><path d="M6.75337766 9.59237098C6.5423346 9.59237098 6.5423346 9.59237098 6.33129155 9.59237098 5.6981624 9.37920718 5.48711935 8.73971578 5.6981624 8.31338818L7.17546376 4.47643979C7.38650681 4.05011219 7.80859292 3.83694839 8.23067902 3.83694839L12.8736262 3.83694839C13.5067553 3.83694839 13.9288414 4.26327599 13.9288414 4.90276739 13.9288414 5.54225879 13.5067553 5.96858639 12.8736262 5.96858639L8.86380817 5.96858639 7.59754986 9.16604338C7.59754986 9.37920718 7.17546376 9.59237098 6.75337766 9.59237098ZM16.0392719 5.75542259C15.8282289 5.75542259 15.4061428 5.54225879 15.1950997 5.32909499 14.9840567 5.11593119 14.9840567 4.90276739 14.9840567 4.68960359 14.9840567 4.47643979 15.1950997 4.05011219 15.1950997 3.83694839 15.6171858 3.41062079 16.250315 3.41062079 16.6724011 3.83694839 16.8834441 4.05011219 16.8834441 4.26327599 16.8834441 4.68960359 16.8834441 4.90276739 16.6724011 5.32909499 16.6724011 5.32909499 16.461358 5.54225879 16.250315 5.75542259 16.0392719 5.75542259Z"/></g></g><g transform="translate(12.168)"><path d="M25.5362093,14.4951384 C25.5362093,14.4951384 25.5362093,14.4951384 25.5362093,14.4951384 L1.05521526,14.4951384 C0.633129155,14.4951384 0.422086104,14.2819746 0.211043052,14.0688108 C0,13.855647 0,13.4293194 0,13.0029918 L4.85399019,0.639491399 C5.06503324,0.2131638 5.48711935,0 5.90920545,0 L20.6822191,0 C21.1043052,0 21.5263913,0.2131638 21.7374343,0.639491399 L26.3803815,12.789828 C26.5914245,13.0029918 26.5914245,13.2161556 26.5914245,13.4293194 C26.5914245,14.0688108 26.1693384,14.4951384 25.5362093,14.4951384 Z M2.74355967,12.3635004 L23.8478648,12.3635004 L19.8380469,2.131638 L6.5423346,2.131638 L2.74355967,12.3635004 Z"/><path d="M6.75337766 9.59237098C6.5423346 9.59237098 6.5423346 9.59237098 6.33129155 9.59237098 5.6981624 9.37920718 5.48711935 8.73971578 5.6981624 8.31338818L7.17546376 4.47643979C7.38650681 4.05011219 7.80859292 3.83694839 8.23067902 3.83694839L12.8736262 3.83694839C13.5067553 3.83694839 13.9288414 4.26327599 13.9288414 4.90276739 13.9288414 5.54225879 13.5067553 5.96858639 12.8736262 5.96858639L9.07485123 5.96858639 7.80859292 9.16604338C7.59754986 9.37920718 7.17546376 9.59237098 6.75337766 9.59237098ZM16.0392719 5.75542259C15.8282289 5.75542259 15.4061428 5.54225879 15.1950997 5.54225879 14.9840567 5.32909499 14.9840567 5.11593119 14.9840567 4.68960359 14.9840567 4.47643979 14.9840567 4.26327599 15.1950997 3.83694839 15.6171858 3.41062079 16.250315 3.41062079 16.6724011 3.83694839 16.8834441 4.05011219 17.0944872 4.26327599 17.0944872 4.68960359 17.0944872 4.90276739 16.8834441 5.32909499 16.6724011 5.54225879 16.461358 5.54225879 16.250315 5.75542259 16.0392719 5.75542259Z"/></g></g><g transform="translate(1)"><path d="M1.06157113 12.1582315C.42462845 12.1582315 0 11.7353365 0 11.100994L0 5.39191137C0 4.75756886.42462845 4.33467385 1.06157113 4.33467385 1.6985138 4.33467385 2.12314225 4.75756886 2.12314225 5.39191137L2.12314225 11.100994C2.12314225 11.7353365 1.6985138 12.1582315 1.06157113 12.1582315ZM1.06157113 2.2201988C.8492569 2.2201988.42462845 2.0087513.212314225 2.0087513 0 1.79730379 0 1.58585629 0 1.16296128 0 .951513772 0 .740066267.212314225.317171257.636942675-.105723752 1.27388535-.105723752 1.6985138.317171257 1.91082803.528618762 2.12314225.740066267 2.12314225 1.16296128 2.12314225 1.37440878 1.91082803 1.79730379 1.6985138 2.0087513 1.6985138 2.0087513 1.27388535 2.2201988 1.06157113 2.2201988Z" transform="translate(23.992)"/><path d="M1.16772824 9.19796646C.955414013 9.19796646.530785563 9.19796646.318471338 8.98651896-.106157113 8.56362395-.106157113 7.92928143.318471338 7.50638642L4.35244161 3.48888383C4.77707006 3.06598882 5.41401274 3.06598882 5.83864119 3.48888383 6.26326964 3.91177884 6.26326964 4.54612135 5.83864119 4.96901636L1.80467091 8.98651896C1.59235669 9.19796646 1.38004246 9.19796646 1.16772824 9.19796646ZM8.17409766 2.2201988C7.96178344 2.2201988 7.53715499 2.2201988 7.32484076 2.0087513 7.11252654 1.79730379 7.11252654 1.58585629 7.11252654 1.16296128 7.11252654.740066267 7.11252654.528618762 7.32484076.317171257 7.74946921-.105723752 8.38641189-.105723752 8.81104034.317171257 9.02335456.528618762 9.23566879.740066267 9.23566879 1.16296128 9.23566879 1.58585629 9.02335456 1.79730379 8.81104034 2.0087513 8.81104034 2.0087513 8.38641189 2.2201988 8.17409766 2.2201988Z" transform="translate(33.864 4.863)"/><g transform="translate(0 19.665)"><path d="M6.7940552 2.2201988 1.06157113 2.2201988C.42462845 2.2201988 0 1.79730379 0 1.16296128 0 .528618762.42462845.105723752 1.06157113.105723752L6.7940552.105723752C7.43099788.105723752 7.85562633.528618762 7.85562633 1.16296128 7.85562633 1.79730379 7.43099788 2.2201988 6.7940552 2.2201988ZM11.0403397 2.2201988C10.8280255 2.2201988 10.403397 2.0087513 10.1910828 2.0087513 9.97876858 1.79730379 9.97876858 1.58585629 9.97876858 1.16296128 9.97876858.740066267 9.97876858.528618762 10.1910828.317171257 10.6157113-.105723752 11.2526539-.105723752 11.6772824.317171257 11.8895966.528618762 11.8895966.740066267 11.8895966 1.16296128 11.8895966 1.58585629 11.8895966 1.79730379 11.6772824 2.0087513 11.6772824 2.0087513 11.4649682 2.2201988 11.0403397 2.2201988Z" transform="translate(38.004)"/><path d="M11.0403397 2.2201988 5.30785563 2.2201988C4.67091295 2.2201988 4.2462845 1.79730379 4.2462845 1.16296128 4.2462845.528618762 4.67091295.105723752 5.30785563.105723752L11.0403397.105723752C11.6772824.105723752 12.1019108.528618762 12.1019108 1.16296128 12.1019108 1.79730379 11.6772824 2.2201988 11.0403397 2.2201988ZM1.06157113 2.2201988C.8492569 2.2201988.636942675 2.2201988.42462845 2.0087513.212314225 1.79730379 0 1.58585629 0 1.16296128 0 .740066267.212314225.528618762.42462845.317171257.8492569-.105723752 1.48619958-.105723752 1.91082803.317171257 2.12314225.528618762 2.12314225.740066267 2.12314225 1.16296128 2.12314225 1.58585629 2.12314225 1.58585629 1.91082803 2.0087513 1.48619958 2.0087513 1.27388535 2.2201988 1.06157113 2.2201988Z"/></g><path d="M8.06794055 9.19796646C7.85562633 9.19796646 7.43099788 9.19796646 7.21868365 8.98651896L3.3970276 4.96901636C2.97239915 4.54612135 2.97239915 3.91177884 3.3970276 3.48888383 3.82165605 3.06598882 4.45859873 3.06598882 4.88322718 3.48888383L8.91719745 7.50638642C9.3418259 7.92928143 9.3418259 8.56362395 8.91719745 8.98651896 8.70488323 9.19796646 8.492569 9.19796646 8.06794055 9.19796646ZM1.06157113 2.2201988C.8492569 2.2201988.42462845 2.2201988.212314225 2.0087513 0 1.79730379 0 1.37440878 0 1.16296128 0 .951513772.212314225.528618762.212314225.317171257.636942675-.105723752 1.27388535-.105723752 1.6985138.317171257 1.91082803.528618762 2.12314225.951513772 2.12314225 1.16296128 2.12314225 1.37440878 1.91082803 1.79730379 1.91082803 2.0087513 1.48619958 2.0087513 1.27388535 2.2201988 1.06157113 2.2201988Z" transform="translate(7.006 4.863)"/></g></g></svg>