<svg xmlns="http://www.w3.org/2000/svg" width="48" height="55" viewBox="0 0 48 55"><g fill="#7F8091" transform="translate(0 .44)"><path d="M23.8873239,53.7172775 C8.78873239,53.7172775 0,48.8136256 0,40.5665747 C0,33.4339901 6.76056338,22.7351133 16.2253521,18.5001412 C16.4507042,18.2772479 16.9014085,18.2772479 17.1267606,18.5001412 C17.3521127,18.5001412 17.5774648,18.5001412 17.5774648,18.5001412 L30.4225352,18.5001412 C30.6478873,18.5001412 30.6478873,18.5001412 30.8732394,18.5001412 C31.0985915,18.5001412 31.5492958,18.5001412 31.7746479,18.5001412 C41.2394366,22.7351133 48,33.4339901 48,40.5665747 C47.7746479,48.8136256 38.9859155,53.7172775 23.8873239,53.7172775 Z M16.6760563,20.7290739 C8.33802817,24.5182594 2.25352113,34.3255632 2.25352113,40.5665747 C2.25352113,50.5967717 18.9295775,51.4883448 23.8873239,51.4883448 C28.8450704,51.4883448 45.5211268,50.5967717 45.5211268,40.5665747 C45.5211268,34.3255632 39.4366197,24.7411527 31.0985915,20.7290739 C30.8732394,20.7290739 30.6478873,20.7290739 30.1971831,20.7290739 L17.3521127,20.7290739 C17.1267606,20.9519672 16.9014085,20.7290739 16.6760563,20.7290739 Z"/><path d="M30.4225352,20.9519672 L17.5774648,20.9519672 C15.5492958,20.9519672 13.7464789,19.168821 13.7464789,17.1627816 C13.7464789,15.1567422 15.5492958,13.3735961 17.5774648,13.3735961 L30.4225352,13.3735961 C32.4507042,13.3735961 34.2535211,15.1567422 34.2535211,17.1627816 C34.028169,19.168821 32.4507042,20.9519672 30.4225352,20.9519672 Z M17.3521127,15.6025287 C16.4507042,15.6025287 15.7746479,16.2712085 15.7746479,17.1627816 C15.7746479,18.0543547 16.4507042,18.7230345 17.3521127,18.7230345 L30.1971831,18.7230345 C31.0985915,18.7230345 31.7746479,18.0543547 31.7746479,17.1627816 C31.7746479,16.2712085 31.0985915,15.6025287 30.1971831,15.6025287 L17.3521127,15.6025287 Z"/><path d="M18.7042254,15.6025287 C18.4788732,15.6025287 18.028169,15.3796355 17.8028169,15.3796355 L13.0704225,10.6988768 C12.1690141,9.80730377 11.7183099,8.69283744 11.7183099,7.5783711 C11.7183099,6.46390476 12.1690141,5.12654515 13.0704225,4.45786535 C14.6478873,2.89761248 17.5774648,2.67471921 19.3802817,4.23497208 C19.6056338,1.78314614 21.6338028,0 23.8873239,0 C26.3661972,0 28.1690141,1.78314614 28.3943662,4.23497208 C30.1971831,2.67471921 32.9014085,2.89761248 34.7042254,4.45786535 C35.6056338,5.34943842 36.056338,6.46390476 36.056338,7.5783711 C36.056338,8.69283744 35.6056338,9.80730377 34.7042254,10.6988768 L29.971831,15.3796355 C29.7464789,15.6025287 29.5211268,15.6025287 29.0704225,15.6025287 C29.0704225,15.6025287 29.0704225,15.6025287 28.8450704,15.6025287 L18.7042254,15.6025287 C18.7042254,15.6025287 18.7042254,15.6025287 18.7042254,15.6025287 C18.7042254,15.6025287 18.7042254,15.6025287 18.7042254,15.6025287 Z M18.9295775,13.3735961 L28.6197183,13.3735961 L32.9014085,9.13862397 C33.3521127,8.69283744 33.5774648,8.02415763 33.5774648,7.5783711 C33.5774648,6.90969129 33.3521127,6.46390476 32.9014085,6.01811822 C32,5.12654515 30.4225352,5.12654515 29.5211268,6.01811822 C29.2957746,6.24101149 29.2957746,6.24101149 29.0704225,6.24101149 L27.7183099,6.68679803 C27.2676056,6.90969129 27.0422535,6.68679803 26.5915493,6.46390476 C26.3661972,6.46390476 26.1408451,6.01811822 26.1408451,5.57233169 L26.1408451,4.45786535 C26.1408451,3.12050575 25.0140845,2.22893268 23.8873239,2.22893268 C22.5352113,2.22893268 21.6338028,3.34339901 21.6338028,4.45786535 L21.6338028,5.79522496 C21.6338028,6.24101149 21.4084507,6.46390476 21.1830986,6.68679803 C20.7323944,6.68679803 20.5070423,6.90969129 20.056338,6.68679803 L18.4788732,6.01811822 C18.2535211,6.01811822 18.2535211,5.79522496 18.028169,5.79522496 C17.1267606,4.90365189 15.5492958,4.90365189 14.8732394,5.79522496 C14.4225352,6.24101149 14.1971831,6.90969129 14.1971831,7.35547783 C14.1971831,8.02415763 14.4225352,8.46994417 14.8732394,8.9157307 L18.9295775,13.3735961 Z"/><g transform="translate(19 23.874)"><g transform="translate(0 2.027)"><path d="M5,11.0362541 C2.27272727,11.0362541 0,8.78395732 0,6.08120122 L0,4.95505285 C0,2.25229675 2.27272727,0 5,0 C7.72727273,0 10,2.25229675 10,4.95505285 C10,5.63074187 9.54545455,6.08120122 8.86363636,6.08120122 C8.18181818,6.08120122 7.72727273,5.63074187 7.72727273,4.95505285 C7.72727273,3.6036748 6.59090909,2.25229675 5,2.25229675 C3.40909091,2.25229675 2.27272727,3.37844512 2.27272727,4.95505285 L2.27272727,6.3064309 C2.27272727,7.65780895 3.40909091,9.009187 5,9.009187 C5.68181818,9.009187 6.13636364,9.45964635 6.13636364,10.1353354 C6.13636364,10.8110244 5.68181818,11.0362541 5,11.0362541 Z"/><path d="M5,19.8202114 C2.27272727,19.8202114 0,17.5679146 0,14.8651585 C0,14.1894695 0.454545455,13.7390102 1.13636364,13.7390102 C1.81818182,13.7390102 2.27272727,14.1894695 2.27272727,14.8651585 C2.27272727,16.2165366 3.40909091,17.5679146 5,17.5679146 C6.59090909,17.5679146 7.72727273,16.4417663 7.72727273,14.8651585 L7.72727273,13.5137805 C7.72727273,12.1624024 6.59090909,10.8110244 5,10.8110244 C4.31818182,10.8110244 3.86363636,10.360565 3.86363636,9.68487602 C3.86363636,9.009187 4.31818182,8.55872765 5,8.55872765 C7.72727273,8.55872765 10,10.8110244 10,13.5137805 L10,14.8651585 C10,17.7931443 7.72727273,19.8202114 5,19.8202114 Z"/></g><path d="M1.13636364 4.05413415C.454545455 4.05413415 0 3.6036748 0 2.92798577L0 1.12614837C0 .45045935.454545455 0 1.13636364 0 1.81818182 0 2.27272727.45045935 2.27272727 1.12614837L2.27272727 2.92798577C2.27272727 3.6036748 1.81818182 4.05413415 1.13636364 4.05413415ZM1.13636364 23.8743455C.454545455 23.8743455 0 23.4238862 0 22.7481972L0 20.9463598C0 20.2706707.454545455 19.8202114 1.13636364 19.8202114 1.81818182 19.8202114 2.27272727 20.2706707 2.27272727 20.9463598L2.27272727 22.7481972C2.27272727 23.4238862 1.81818182 23.8743455 1.13636364 23.8743455Z" transform="translate(3.864)"/></g></g></svg>