<svg xmlns="http://www.w3.org/2000/svg" width="45" height="50" viewBox="0 0 45 50"><g fill="#00DEE2"><path d="M41.175,50 C39.15,50 37.35,48.340249 37.35,46.473029 L37.35,45.2282158 C37.35,45.2282158 37.35,45.0207469 37.35,45.0207469 L37.35,42.7385892 C37.35,42.3236515 36.9,41.9087137 36.45,41.9087137 C36,41.9087137 35.55,42.3236515 35.55,42.7385892 L35.55,46.473029 C35.325,48.340249 33.75,49.7925311 31.725,49.7925311 C29.7,49.7925311 27.9,48.1327801 27.9,46.2655602 L27.9,45.0207469 C27.9,45.0207469 27.9,44.813278 27.9,44.813278 L27.9,42.5311203 C27.9,42.1161826 27.45,41.7012448 27,41.7012448 C26.55,41.7012448 26.1,42.1161826 26.1,42.5311203 L26.1,46.2655602 C26.1,48.1327801 24.3,49.5850622 22.275,49.5850622 C20.25,49.5850622 18.45,47.9253112 18.45,46.0580913 L18.45,44.813278 C18.45,44.813278 18.45,44.813278 18.45,44.6058091 L18.45,42.3236515 C18.45,41.9087137 18,41.4937759 17.55,41.4937759 C17.1,41.4937759 16.65,41.9087137 16.65,42.3236515 L16.65,45.8506224 C16.65,47.7178423 14.85,49.3775934 12.825,49.3775934 C10.8,49.3775934 9,47.7178423 9,45.8506224 L9,42.3236515 C9,41.9087137 8.55,41.4937759 8.1,41.4937759 C7.65,41.4937759 7.2,41.9087137 7.2,42.3236515 L7.2,45.8506224 C7.2,47.7178423 5.4,49.3775934 3.375,49.3775934 C1.35,49.3775934 0,48.340249 0,46.473029 L0,20.746888 C0,9.33609959 10.125,0 22.5,0 C34.875,0 45,9.33609959 45,20.746888 L45,46.473029 C45,48.340249 43.2,50 41.175,50 Z M39.6,44.813278 C39.6,44.813278 39.6,45.0207469 39.6,44.813278 L39.6,46.2655602 C39.6,47.0954357 40.275,47.7178423 41.175,47.7178423 C42.075,47.7178423 42.75,47.0954357 42.75,46.2655602 L42.75,20.746888 C42.75,10.373444 33.75,2.0746888 22.5,2.0746888 C11.25,2.0746888 2.25,10.373444 2.25,20.746888 L2.25,46.473029 C2.25,47.3029046 2.925,47.9253112 3.825,47.9253112 C4.725,47.9253112 5.4,47.3029046 5.4,46.473029 L5.4,42.9460581 C5.4,41.2863071 6.75,40.0414938 8.55,40.0414938 C10.35,40.0414938 11.7,41.2863071 11.7,42.9460581 L11.7,46.473029 C11.7,47.3029046 12.375,47.9253112 13.275,47.9253112 C14.175,47.9253112 14.85,47.3029046 14.85,46.473029 L14.85,42.9460581 C14.85,41.2863071 16.2,40.0414938 18,40.0414938 C19.8,40.0414938 21.15,41.2863071 21.15,42.9460581 L21.15,45.0207469 C21.15,45.0207469 21.15,45.0207469 21.15,45.2282158 L21.15,46.6804979 C21.15,47.5103734 21.825,48.1327801 22.725,48.1327801 C23.625,48.1327801 24.3,47.5103734 24.3,46.6804979 L24.3,42.9460581 C24.3,41.2863071 25.65,40.0414938 27.45,40.0414938 C29.25,40.0414938 30.6,41.2863071 30.6,42.9460581 L30.6,45.0207469 C30.6,45.0207469 30.6,45.2282158 30.6,45.2282158 L30.6,46.6804979 C30.6,47.5103734 31.275,48.1327801 32.175,48.1327801 C33.075,48.1327801 33.75,47.5103734 33.75,46.6804979 L33.75,42.9460581 C33.75,41.2863071 35.1,40.0414938 36.9,40.0414938 C38.7,40.0414938 40.05,41.2863071 40.05,42.9460581 L40.05,44.813278 L39.6,44.813278 Z"/><g transform="translate(7 15.74)"><path d="M5.22727273,15.7407407 C2.27272727,15.7407407 0,13.6136136 0,10.8483483 L0,4.89239239 C0,2.12712713 2.27272727,0 5.22727273,0 C8.18181818,0 10.4545455,2.12712713 10.4545455,4.89239239 L10.4545455,10.8483483 C10.4545455,13.4009009 8.18181818,15.7407407 5.22727273,15.7407407 Z M5.22727273,2.12712713 C3.63636364,2.12712713 2.27272727,3.4034034 2.27272727,4.89239239 L2.27272727,10.8483483 C2.27272727,12.3373373 3.63636364,13.6136136 5.22727273,13.6136136 C6.81818182,13.6136136 8.18181818,12.3373373 8.18181818,10.8483483 L8.18181818,4.89239239 C8.18181818,3.4034034 6.81818182,2.12712713 5.22727273,2.12712713 Z"/><ellipse cx="2.273" cy="7.87" rx="2.273" ry="2.127"/><g transform="translate(14.545)"><path d="M5.22727273,15.7407407 C2.27272727,15.7407407 0,13.6136136 0,10.8483483 L0,4.89239239 C0,2.12712713 2.27272727,0 5.22727273,0 C8.18181818,0 10.4545455,2.12712713 10.4545455,4.89239239 L10.4545455,10.8483483 C10.4545455,13.4009009 8.18181818,15.7407407 5.22727273,15.7407407 Z M5.22727273,2.12712713 C3.63636364,2.12712713 2.27272727,3.4034034 2.27272727,4.89239239 L2.27272727,10.8483483 C2.27272727,12.3373373 3.63636364,13.6136136 5.22727273,13.6136136 C6.81818182,13.6136136 8.18181818,12.3373373 8.18181818,10.8483483 L8.18181818,4.89239239 C8.18181818,3.4034034 6.81818182,2.12712713 5.22727273,2.12712713 Z"/><ellipse cx="2.273" cy="7.87" rx="2.273" ry="2.127"/></g></g></g></svg>