<svg xmlns="http://www.w3.org/2000/svg" width="135" height="41" viewBox="0 0 135 41"><g fill="none" fill-rule="evenodd"><text font-family="NunitoSans-SemiBold, Nunito Sans" font-size="30" font-weight="500" letter-spacing="6.75">
                    <tspan x="0" y="30" fill="#00DEE2">Glo</tspan>
                    <tspan x="68.16" y="30" fill="#FFF">Gl</tspan>
                </text><g fill-rule="nonzero" transform="translate(111 9)"><g fill="#FFF" transform="translate(9.4 5.4)"><g transform="translate(0 1.2)"><path d="M2.5,5.8 C1.1,5.8 0,4.7 0,3.3 L0,2.5 C0,1.1 1.1,0 2.5,0 C3.9,0 5,1.1 5,2.5 C5,2.8 4.8,3 4.5,3 C4.2,3 4,2.8 4,2.5 C4,1.7 3.3,1 2.5,1 C1.7,1 1,1.7 1,2.5 L1,3.3 C1,4.1 1.7,4.8 2.5,4.8 C2.8,4.8 3,5 3,5.3 C3,5.6 2.8,5.8 2.5,5.8 Z"/><path d="M2.5,10.6 C1.1,10.6 0,9.5 0,8.1 C0,7.8 0.2,7.6 0.5,7.6 C0.8,7.6 1,7.8 1,8.1 C1,8.9 1.7,9.6 2.5,9.6 C3.3,9.6 4,8.9 4,8.1 L4,7.3 C4,6.5 3.3,5.8 2.5,5.8 C2.2,5.8 2,5.6 2,5.3 C2,5 2.2,4.8 2.5,4.8 C3.9,4.8 5,5.9 5,7.3 L5,8.1 C5,9.5 3.9,10.6 2.5,10.6 Z"/></g><path d="M.5 2C.2 2 0 1.8 0 1.5L0 .5C0 .2.2 0 .5 0 .8 0 1 .2 1 .5L1 1.5C1 1.8.8 2 .5 2ZM.5 12.9C.2 12.9 0 12.7 0 12.4L0 11.4C0 11.1.2 10.9.5 10.9.8 10.9 1 11.1 1 11.4L1 12.4C1 12.7.8 12.9.5 12.9Z" transform="translate(2)"/></g><g fill="#00DEE2"><path d="M11.9,23.8 C5.3,23.8 4.4408921e-16,18.5 4.4408921e-16,11.9 C4.4408921e-16,5.3 5.3,4.4408921e-16 11.9,4.4408921e-16 C18.5,4.4408921e-16 23.8,5.3 23.8,11.9 C23.8,18.5 18.5,23.8 11.9,23.8 Z M11.9,1 C5.9,1 1,5.9 1,11.9 C1,17.9 5.9,22.8 11.9,22.8 C17.9,22.8 22.8,17.9 22.8,11.9 C22.8,5.9 17.9,1 11.9,1 Z"/><path d="M11.9,20.8 C7,20.8 3,16.8 3,11.9 C3,7 7,3 11.9,3 C16.8,3 20.8,7 20.8,11.9 C20.8,16.8 16.8,20.8 11.9,20.8 Z M11.9,4 C7.5,4 4,7.6 4,11.9 C4,16.3 7.6,19.8 11.9,19.8 C16.3,19.8 19.8,16.2 19.8,11.9 C19.8,7.5 16.3,4 11.9,4 Z"/></g></g></g></svg>