<svg xmlns="http://www.w3.org/2000/svg" width="20" height="19" viewBox="0 0 20 19"><g fill="none" transform="translate(0 .25)"><path fill="#4285F4" d="M19.5326718,9.42306679 C19.5326718,8.66513168 19.4661832,8.11203817 19.3222901,7.53846756 L9.96564885,7.53846756 L9.96564885,10.9594141 L15.4577863,10.9594141 C15.3470992,11.8095668 14.7491603,13.0898798 13.4203817,13.9502004 L13.4017557,14.0647309 L16.3601527,16.1846756 L16.5651145,16.2035992 C18.4474809,14.5955115 19.5326718,12.2294885 19.5326718,9.42306679"/><path fill="#34A853" d="M9.96564885,18.4364504 C12.6563359,18.4364504 14.9151908,17.6170134 16.5651145,16.2035992 L13.4203817,13.9502004 C12.578855,14.4930553 11.4493893,14.8720229 9.96564885,14.8720229 C7.33030534,14.8720229 5.09358779,13.2640057 4.29625954,11.0413931 L4.17938931,11.0505725 L1.10320611,13.252708 L1.0629771,13.3561527 C2.70175573,16.367416 6.06793893,18.4364504 9.96564885,18.4364504"/><path fill="#FBBC05" d="M4.29625954,11.0413931 C4.08587786,10.4678225 3.96412214,9.8532271 3.96412214,9.21822519 C3.96412214,8.58315267 4.08587786,7.96862786 4.28519084,7.39505725 L4.27961832,7.27290076 L1.1648855,5.03538931 L1.0629771,5.0802271 C0.387557252,6.32982443 0,7.73307061 0,9.21822519 C0,10.7033798 0.387557252,12.1065553 1.0629771,13.3561527 L4.29625954,11.0413931"/><path fill="#EB4335" d="M9.96564885,3.56435687 C11.8369466,3.56435687 13.0992366,4.31205344 13.8190076,4.9368874 L16.6315267,2.39673855 C14.9041985,0.911583969 12.6563359,0 9.96564885,0 C6.06793893,0 2.70175573,2.06896374 1.0629771,5.0802271 L4.28519084,7.39505725 C5.09358779,5.17244466 7.33030534,3.56435687 9.96564885,3.56435687"/></g></svg>