<svg xmlns="http://www.w3.org/2000/svg" width="20" height="29" viewBox="0 0 30 29"><g fill=""><path d="M25.6547186,29 L4.46723955,29 C2.04216665,29 0,27 0,24.625 L0,8.375 C0,6 2.04216665,4 4.46723955,4 L25.5270832,4 C27.9521561,4 29.9943227,6 29.9943227,8.375 L29.9943227,24.625 C30.1219581,27.125 28.0797915,29 25.6547186,29 Z M4.46723955,5.25 C2.68034373,5.25 1.27635416,6.625 1.27635416,8.375 L1.27635416,24.625 C1.27635416,26.375 2.68034373,27.75 4.46723955,27.75 L25.5270832,27.75 C27.313979,27.75 28.7179686,26.375 28.7179686,24.625 L28.7179686,8.375 C28.7179686,6.625 27.313979,5.25 25.5270832,5.25 L4.46723955,5.25 Z"/><rect width="28" height="1" x="1" y="10"/><g transform="translate(6 14)"><rect width="3.25" height="1.282"/><rect width="3.25" height="1.282" x="6.875"/><rect width="3.25" height="1.282" x="13.75"/><g transform="translate(0 4.359)"><rect width="3.25" height="1.282"/><rect width="3.25" height="1.282" x="6.875"/><rect width="3.25" height="1.282" x="13.75"/></g><g transform="translate(0 8.718)"><rect width="3.25" height="1.282"/><rect width="3.25" height="1.282" x="6.875"/><rect width="3.25" height="1.282" x="13.75"/></g></g><g transform="translate(4)"><rect width="1.235" height="2.55" y=".45"/><path d="M0.617647059,2.55 C0.247058824,2.55 0,2.25 0,1.8 L0,0.75 C0,0.3 0.247058824,0 0.617647059,0 C0.988235294,0 1.23529412,0.3 1.23529412,0.75 L1.23529412,1.8 C1.23529412,2.25 0.988235294,2.55 0.617647059,2.55 Z"/><g transform="translate(3.335)"><rect width="1.235" height="2.55" y=".45"/><path d="M0.617647059,2.55 C0.247058824,2.55 0,2.25 0,1.8 L0,0.75 C0,0.3 0.247058824,0 0.617647059,0 C0.988235294,0 1.23529412,0.3 1.23529412,0.75 L1.23529412,1.8 C1.23529412,2.25 0.864705882,2.55 0.617647059,2.55 Z"/></g><g transform="translate(6.547)"><rect width="1.235" height="2.55" y=".45"/><path d="M0.617647059,2.55 C0.247058824,2.55 0,2.25 0,1.8 L0,0.75 C0,0.3 0.247058824,0 0.617647059,0 C0.988235294,0 1.23529412,0.3 1.23529412,0.75 L1.23529412,1.8 C1.23529412,2.25 0.988235294,2.55 0.617647059,2.55 Z"/></g><g transform="translate(9.882)"><rect width="1.235" height="2.55" y=".45"/><path d="M0.617647059,2.55 C0.247058824,2.55 0,2.25 0,1.8 L0,0.75 C0,0.3 0.247058824,0 0.617647059,0 C0.988235294,0 1.23529412,0.3 1.23529412,0.75 L1.23529412,1.8 C1.23529412,2.25 0.988235294,2.55 0.617647059,2.55 Z"/></g><g transform="translate(13.218)"><rect width="1.235" height="2.55" y=".45"/><path d="M0.617647059,2.55 C0.247058824,2.55 0,2.25 0,1.8 L0,0.75 C0,0.3 0.247058824,0 0.617647059,0 C0.988235294,0 1.23529412,0.3 1.23529412,0.75 L1.23529412,1.8 C1.23529412,2.25 0.864705882,2.55 0.617647059,2.55 Z"/></g><g transform="translate(16.43)"><rect width="1.235" height="2.55" y=".45"/><path d="M0.617647059,2.55 C0.247058824,2.55 0,2.25 0,1.8 L0,0.75 C0,0.3 0.247058824,0 0.617647059,0 C0.988235294,0 1.23529412,0.3 1.23529412,0.75 L1.23529412,1.8 C1.23529412,2.25 0.988235294,2.55 0.617647059,2.55 Z"/></g><g transform="translate(19.765)"><rect width="1.235" height="2.55" y=".45"/><path d="M0.617647059,2.55 C0.247058824,2.55 0,2.25 0,1.8 L0,0.75 C0,0.3 0.247058824,0 0.617647059,0 C0.988235294,0 1.23529412,0.3 1.23529412,0.75 L1.23529412,1.8 C1.23529412,2.25 0.988235294,2.55 0.617647059,2.55 Z"/></g></g><g transform="translate(4 4)"><g transform="translate(19.765)"><rect width="1.235" height="2.55"/><path d="M0.617647059,3 C0.247058824,3 0,2.7 0,2.25 L0,1.2 C0,0.75 0.247058824,0.45 0.617647059,0.45 C0.988235294,0.45 1.23529412,0.75 1.23529412,1.2 L1.23529412,2.25 C1.23529412,2.7 0.988235294,3 0.617647059,3 Z"/></g><g transform="translate(16.43)"><rect width="1.235" height="2.55"/><path d="M0.617647059,3 C0.247058824,3 0,2.7 0,2.25 L0,1.2 C0,0.75 0.247058824,0.45 0.617647059,0.45 C0.988235294,0.45 1.23529412,0.75 1.23529412,1.2 L1.23529412,2.25 C1.23529412,2.7 0.988235294,3 0.617647059,3 Z"/></g><g transform="translate(13.218)"><rect width="1.235" height="2.55"/><path d="M0.617647059,3 C0.247058824,3 0,2.7 0,2.25 L0,1.2 C0,0.75 0.247058824,0.45 0.617647059,0.45 C0.988235294,0.45 1.23529412,0.75 1.23529412,1.2 L1.23529412,2.25 C1.23529412,2.7 0.864705882,3 0.617647059,3 Z"/></g><g transform="translate(9.882)"><rect width="1.235" height="2.55"/><path d="M0.617647059,3 C0.247058824,3 0,2.7 0,2.25 L0,1.2 C0,0.75 0.247058824,0.45 0.617647059,0.45 C0.988235294,0.45 1.23529412,0.75 1.23529412,1.2 L1.23529412,2.25 C1.23529412,2.7 0.988235294,3 0.617647059,3 Z"/></g><g transform="translate(6.547)"><rect width="1.235" height="2.55"/><path d="M0.617647059,3 C0.247058824,3 0,2.7 0,2.25 L0,1.2 C0,0.75 0.247058824,0.45 0.617647059,0.45 C0.988235294,0.45 1.23529412,0.75 1.23529412,1.2 L1.23529412,2.25 C1.23529412,2.7 0.988235294,3 0.617647059,3 Z"/></g><g transform="translate(3.335)"><rect width="1.235" height="2.55"/><path d="M0.617647059,3 C0.247058824,3 0,2.7 0,2.25 L0,1.2 C0,0.75 0.247058824,0.45 0.617647059,0.45 C0.988235294,0.45 1.23529412,0.75 1.23529412,1.2 L1.23529412,2.25 C1.23529412,2.7 0.864705882,3 0.617647059,3 Z"/></g><rect width="1.235" height="2.55"/><path d="M0.617647059,3 C0.247058824,3 0,2.7 0,2.25 L0,1.2 C0,0.75 0.247058824,0.45 0.617647059,0.45 C0.988235294,0.45 1.23529412,0.75 1.23529412,1.2 L1.23529412,2.25 C1.23529412,2.7 0.988235294,3 0.617647059,3 Z"/></g></g></svg>