<svg xmlns="http://www.w3.org/2000/svg" width="30" height="31" viewBox="0 0 30 31"><g fill=""><g transform="translate(0 13)"><path d="M8,18 C7.88721311,18 7.77311475,17.9715711 7.67213115,17.9134212 L0.327868852,13.7369611 C0.125901639,13.6219534 0,13.4087369 0,13.1774292 L0,4.82580136 C0,4.5944937 0.125901639,4.38127715 0.327868852,4.26626943 L7.67213115,0.0872249542 C7.87409836,-0.0290749847 8.12590164,-0.0290749847 8.32786885,0.0872249542 L15.6721311,4.26626943 C15.8740984,4.38127715 16,4.5944937 16,4.82580136 L16,13.1774292 C16,13.4087369 15.8740984,13.6219534 15.6721311,13.7369611 L8.32786885,17.9134212 C8.22688525,17.9715711 8.11278689,18 8,18 Z M1.31278689,12.8039772 L8.00131148,16.6082774 L14.6898361,12.8039772 L14.6898361,5.19925338 L8.00131148,1.39236871 L1.31278689,5.19925338 L1.31278689,12.8039772 Z"/><path d="M8,9.64966438 C7.88721311,9.64966438 7.77311475,9.62123551 7.67213115,9.56308554 L0.327868852,5.38662551 C0.125901639,5.27161779 0,5.05840123 0,4.82709358 C0,4.59578592 0.125901639,4.38256937 0.327868852,4.26756165 L7.67213115,0.0885171758 C7.87409836,-0.0277827632 8.12590164,-0.0277827632 8.32786885,0.0885171758 L15.6721311,4.26756165 C15.8740984,4.38256937 16,4.59578592 16,4.82709358 C16,5.05840123 15.8740984,5.27161779 15.6721311,5.38662551 L8.32786885,9.56308554 C8.22688525,9.61994329 8.11278689,9.64966438 8,9.64966438 Z M1.96852459,4.82580136 L8.00131148,8.25664956 L14.0340984,4.82580136 L8.00131148,1.39236871 L1.96852459,4.82580136 Z"/><rect width="1.311" height="7.96" x="7.344" y="9.004"/></g><g transform="translate(15 13)"><path d="M7.5,18 C7.3942623,18 7.28729508,17.9715711 7.19262295,17.9134212 L0.307377049,13.7369611 C0.118032787,13.6219534 0,13.4087369 0,13.1774292 L0,4.82580136 C0,4.5944937 0.118032787,4.38127715 0.307377049,4.26626943 L7.19262295,0.0872249542 C7.38196721,-0.0290749847 7.61803279,-0.0290749847 7.80737705,0.0872249542 L14.692623,4.26626943 C14.8819672,4.38127715 15,4.5944937 15,4.82580136 L15,13.1774292 C15,13.4087369 14.8819672,13.6219534 14.692623,13.7369611 L7.80737705,17.9134212 C7.71147541,17.9715711 7.6057377,18 7.5,18 Z M1.2295082,12.8039772 L7.5,16.6082774 L13.7704918,12.8039772 L13.7704918,5.19925338 L7.5,1.39236871 L1.2295082,5.19925338 L1.2295082,12.8039772 Z"/><path d="M7.5,9.64966438 C7.3942623,9.64966438 7.28729508,9.62123551 7.19262295,9.56308554 L0.307377049,5.38662551 C0.118032787,5.27161779 0,5.05840123 0,4.82709358 C0,4.59578592 0.118032787,4.38256937 0.307377049,4.26756165 L7.19262295,0.0885171758 C7.38196721,-0.0277827632 7.61803279,-0.0277827632 7.80737705,0.0885171758 L14.692623,4.26756165 C14.8819672,4.38256937 15,4.59578592 15,4.82709358 C15,5.05840123 14.8819672,5.27161779 14.692623,5.38662551 L7.80737705,9.56308554 C7.71147541,9.61994329 7.6057377,9.64966438 7.5,9.64966438 Z M1.8442623,4.82580136 L7.5,8.25664956 L13.1557377,4.82580136 L7.5,1.39236871 L1.8442623,4.82580136 Z"/><rect width="1.23" height="7.96" x="6.885" y="9.004"/></g><g transform="translate(7)"><path d="M8,18 C7.88721311,18 7.77311475,17.9715752 7.67213115,17.9134336 L0.327868852,13.7349891 C0.125901639,13.6199978 0,13.4068119 0,13.1755375 L0,4.82252449 C0,4.59125004 0.125901639,4.3780641 0.327868852,4.26307289 L7.67213115,0.0872124323 C7.87409836,-0.0290708108 8.12590164,-0.0290708108 8.32786885,0.0872124323 L15.6721311,4.26307289 C15.8740984,4.3780641 16,4.59125004 16,4.82252449 L16,13.1755375 C16,13.4068119 15.8740984,13.6199978 15.6721311,13.7349891 L8.32786885,17.9134336 C8.22688525,17.9715752 8.11278689,18 8,18 Z M1.31147541,12.802139 L8,16.6084772 L14.6885246,12.802139 L14.6885246,5.19592291 L8,1.39216883 L1.31147541,5.19592291 L1.31147541,12.802139 Z"/><path d="M8,9.64698704 C7.88721311,9.64698704 7.77311475,9.61856225 7.67213115,9.56042063 L0.327868852,5.3819761 C0.125901639,5.26698489 0,5.05379894 0,4.82252449 C0,4.59125004 0.125901639,4.3780641 0.327868852,4.26307289 L7.67213115,0.0872124323 C7.87409836,-0.0290708108 8.12590164,-0.0290708108 8.32786885,0.0872124323 L15.6721311,4.26307289 C15.8740984,4.3780641 16,4.59125004 16,4.82252449 C16,5.05379894 15.8740984,5.26698489 15.6721311,5.3819761 L8.32786885,9.56042063 C8.22688525,9.61856225 8.11278689,9.64698704 8,9.64698704 Z M1.96721311,4.82252449 L8,8.25546424 L14.0327869,4.82252449 L8,1.39216883 L1.96721311,4.82252449 Z"/><rect width="1.311" height="7.962" x="7.344" y="9.001"/></g></g></svg>