<svg xmlns="http://www.w3.org/2000/svg" width="31" height="31" viewBox="0 0 31 31"><g fill="#7F8091"><path d="M30.3463777,31 L0.653622333,31 C0.292822805,31 0,30.7077072 0,30.3475607 L0,9.28029633 C0,9.04802795 0.124188243,8.83272299 0.324196677,8.71658879 L15.1705743,0.0900366208 C15.3745045,-0.0300122069 15.6254955,-0.0300122069 15.8294257,0.0900366208 L30.6758033,8.71658879 C30.8758118,8.83272299 31,9.04802795 31,9.28029633 L31,30.3475607 C31,30.7077072 30.7084844,31 30.3463777,31 Z M1.30724467,29.6951214 L29.6940626,29.6951214 L29.6940626,9.65610136 L15.5,1.40796397 L1.30724467,9.65479648 L1.30724467,29.6951214 Z"/><path d="M30.3463777,20.9993384 C30.2326474,20.9993384 30.1189171,20.9702278 30.016952,20.9093601 L15.5,12.3548092 L0.983047989,20.9093601 C0.779117821,21.0310954 0.52943409,21.028449 0.328118411,20.9120066 C0.125495488,20.7942409 0,20.5745881 0,20.3377335 L0,9.41066759 C0,9.17513626 0.124188243,8.95680665 0.324196677,8.83904099 L15.1705743,0.0913014713 C15.3745045,-0.0304338238 15.6254955,-0.0304338238 15.8294257,0.0913014713 L30.6758033,8.83904099 C30.8758118,8.95680665 31,9.17513626 31,9.41066759 L31,20.3377335 C31,20.5745881 30.8745045,20.7942409 30.6718816,20.9120066 C30.5712237,20.9702278 30.4588007,20.9993384 30.3463777,20.9993384 Z M15.5,10.9283891 C15.6137303,10.9283891 15.7274606,10.9574998 15.8294257,11.0183674 L29.6927553,19.1878643 L29.6927553,9.79042878 L15.5,1.4277433 L1.30724467,9.79042878 L1.30724467,19.1878643 L15.1705743,11.0183674 C15.2725394,10.9574998 15.3862697,10.9283891 15.5,10.9283891 Z"/><path d="M30.3463777 20.9993292C30.2326474 20.9993292 30.1189171 20.9698151 30.016952 20.9081038L15.5 12.2349809.983047989 20.9081038C.779117821 21.0315264.52943409 21.0288433.328118411 20.9107869.125495488 20.7913889 0 20.5686916 0 20.3285541L0 14.5411059C0 14.30231.124188243 14.0809542.324196677 13.9615562L15.1705743 5.09256697C15.3745045 4.96914434 15.6254955 4.96914434 15.8294257 5.09256697L30.6758033 13.9615562C30.8758118 14.0809542 31 14.30231 31 14.5411059L31 20.3285541C31 20.5686916 30.8745045 20.7913889 30.6718816 20.9107869 30.5712237 20.9698151 30.4588007 20.9993292 30.3463777 20.9993292ZM15.5 10.7887897C15.6137303 10.7887897 15.7274606 10.8183038 15.8294257 10.8800151L29.6927553 19.1627468 29.6927553 14.9261309 15.5 6.44753281 1.30724467 14.9261309 1.30724467 19.1627468 15.1705743 10.8800151C15.2725394 10.8183038 15.3862697 10.7887897 15.5 10.7887897ZM19.3639105 31 12.6348199 31C12.2843993 31 12 30.7180617 12 30.3706734L12 23.6293266C12 23.2819383 12.2843993 23 12.6348199 23L19.3651801 23C19.7156007 23 20 23.2819383 20 23.6293266L20 30.3706734C19.9987304 30.7180617 19.7156007 31 19.3639105 31ZM13.2696397 29.7413468 18.7303603 29.7413468 18.7303603 24.2586532 13.2696397 24.2586532 13.2696397 29.7413468Z"/></g></svg>