<svg xmlns="http://www.w3.org/2000/svg" width="240" height="240" viewBox="0 0 240 240"><g fill="none"><path fill="#000" d="M131.140026 77.3600363C131.095052 77.0815683 130.990021 76.8440394 130.84683 76.6969676 130.696545 76.5555089 130.521508 76.515639 130.35535 76.5850184 130.000704 76.7333913 129.692288 77.1127295 129.493655 77.6448661 129.383277 77.9519624 129.32034 78.3034168 129.310934 78.6652193 129.304289 79.0204058 129.353922 79.3719319 129.454405 79.681356 129.644748 80.3115617 130.022973 80.7014861 130.432183 80.6893813 130.577667 80.6790624 130.720042 80.6129495 130.849124 80.4957717 130.926877 80.4236575 130.998445 80.3329744 131.061749 80.2263598 131.189277 80.008059 131.282928 79.7371162 131.333961 79.4388209 131.391143 79.1162866 131.394314 78.7720909 131.343102 78.4465354 131.319422 78.2939652 131.281843 78.1489785 131.231793 78.0170858 131.206818 77.9541955 131.179929 77.8936713 131.15124 77.8357719 131.169303 77.6778983 131.165459 77.514808 131.140026 77.3600363L131.140026 77.3600363ZM145.715504 77.9727185C145.700966 77.935643 145.682645 77.8904846 145.663885 77.8462048 145.675701 77.7107232 145.670204 77.5722935 145.647794 77.4410447 145.599334 77.137066 145.486318 76.8777671 145.332264 76.7171052 145.277511 76.6764802 145.222839 76.6357967 145.168246 76.5950546 145.048816 76.5372807 144.922777 76.5372807 144.803347 76.5950546 144.460326 76.7429115 144.162544 77.1174431 143.971426 77.6413932 143.863273 77.9491006 143.802001 78.3008934 143.793547 78.6626751 143.78783 79.0185947 143.837417 79.3704891 143.936934 79.6802318 144.03313 79.984228 144.171824 80.2397072 144.33981 80.4223401 144.641117 80.7546424 145.01989 80.778743 145.333977 80.485597 145.411686 80.4119769 145.483148 80.3194556 145.546268 80.2107459 145.673699 79.9890848 145.767122 79.7139172 145.817767 79.4110739 145.873994 79.0849161 145.876756 78.7373345 145.825733 78.4085231 145.802356 78.2538355 145.765146 78.1067188 145.715504 77.9727185L145.715504 77.9727185ZM138.766495 88.8366129C139.158161 88.5027322 139.622021 88.3099904 140.030123 88.0076137 140.638548 87.5894326 141.126684 86.9524538 141.42809 86.1833739 141.818821 85.021155 141.822927 83.7186431 141.439535 82.5527847 141.220709 81.9166671 140.695619 81.5989437 140.460221 81.0000046 140.264543 80.4168234 140.159332 79.7943033 140.14995 79.164164 140.036692 77.2290313 140.003822 75.2841706 140.016663 73.3445094 140.024881 72.1041415 138.446862 72.1029674 138.438645 73.3445094 138.427856 74.9851204 138.457567 76.624986 138.527778 78.2641061 138.593013 79.7547728 138.636664 81.4029034 139.443916 82.616771 139.590296 82.8369355 139.769569 83.0088237 139.929339 83.212719 139.935748 83.2208536 139.990455 83.31872 139.990455 83.2993759 140.0345 83.4706132 140.067479 83.6458062 140.089087 83.8233428 140.120823 84.0350731 140.13691 84.2498588 140.137155 84.4651071 140.137681 84.5737916 140.13331 84.6818332 140.127656 84.7902103 140.127152 84.8013918 140.12381 84.835216 140.120789 84.8656856 140.11335 84.9089582 140.099479 84.9975719 140.099479 84.9974321 140.082769 85.0874435 140.060177 85.1747992 140.039118 85.2632452 140.033553 85.2856327 140.028924 85.3083512 140.025247 85.3313128 140.019845 85.3422987 140.013436 85.3557724 140.003937 85.3774087 139.971571 85.450508 139.941265 85.524362 139.905511 85.595253 139.885986 85.6343884 139.86202 85.6719583 139.843709 85.7116248L139.841649 85.7158738C139.752539 85.8369419 139.662376 85.9515806 139.564522 86.0625015 139.547584 86.0816498 139.529341 86.0988415 139.511876 86.1170953 139.45614 86.1653996 139.400929 86.2141511 139.343385 86.2596599 138.905733 86.6065671 138.397192 86.8082541 137.97 87.1725765 137.603146 87.449758 137.478664 88.0295249 137.686946 88.4908797 137.909244 88.9465913 138.389685 89.1004559 138.766495 88.8366129L138.766495 88.8366129ZM107.597528 79.3588294C107.062693 78.8657807 106.288734 78.5957172 105.487355 78.6225102 105.222437 78.628389 104.969492 78.7148054 104.777105 78.8651611 104.590163 79.0214091 104.484551 79.2316897 104.482759 79.4512209 104.505665 79.8693508 104.926522 80.3183499 105.487325 80.2799076 105.559723 80.2770038 105.632278 80.2782248 105.704472 80.2835619 105.744369 80.2917841 105.783916 80.3013526 105.823172 80.3118828 105.88984 80.3402787 105.954576 80.3716596 106.017091 80.4058851 106.046846 80.4277388 106.077913 80.4485107 106.106036 80.4715905 105.755716 80.7100589 105.541314 81.0579204 105.514137 81.4319285 105.434343 82.2803292 106.508883 82.9323348 107.470609 82.7172114 107.975582 82.5991008 108.377625 82.283373 108.545469 81.8731141 108.655043 81.5341423 108.644718 81.1763803 108.515714 80.8420942 108.364256 80.2922808 108.048631 79.7824111 107.597528 79.3588294L107.597528 79.3588294ZM126.773262 70.0891954C129.080654 70.5597423 131.319645 71.3089124 133.439013 72.319566 133.704442 72.4534559 134.021444 72.4441459 134.278223 72.2949193 134.584984 72.3425152 134.890057 72.200462 135.046266 71.937291 135.380495 71.414288 135.634682 70.8163198 135.46105 70.1926798 135.301777 69.6200872 134.735782 69.2546457 134.283962 68.9099786 133.40063 68.2299465 132.452893 67.6344224 131.453732 67.1315636 130.939876 66.8754151 130.411428 66.6461458 129.875685 66.4373774 129.322702 66.221912 128.746832 66.1035758 128.173519 66.3268998 127.656468 66.5391613 127.22505 66.9123605 126.945849 67.3888965 126.649445 67.8715809 126.527952 68.426907 126.294607 68.9358782 126.098042 69.3651688 126.221092 69.9754604 126.773262 70.0891954L126.773262 70.0891954ZM128.17482 68.4746971C128.271337 68.2162855 128.44256 67.9910416 128.667556 67.8265015 128.729693 67.7932141 128.797585 67.7715038 128.867792 67.76247 129.108435 67.8062162 129.341215 67.8843932 129.558672 67.9944957 129.928102 68.1424217 130.289679 68.3102792 130.645285 68.4874077 131.411458 68.86896 132.146561 69.3077223 132.844091 69.7998125 133.168655 70.0286263 133.486992 70.2686245 133.787415 70.527552 133.819735 70.5554106 133.928194 70.7086441 133.917761 70.6437243 133.92073 70.6965167 133.909115 70.7491165 133.884141 70.7959783 132.016765 69.9257728 130.063385 69.2453708 128.054581 68.7654239 128.092453 68.6676569 128.131813 68.5704595 128.17482 68.4746971L128.17482 68.4746971ZM142.544097 71.6273159C142.715274 71.9809014 142.997223 72.2497574 143.334813 72.3813152 143.719131 72.4665709 144.117803 72.3825109 144.448864 72.1464177 144.924418 71.8462751 145.375848 71.4999033 145.798018 71.1112427 146.246716 70.7393373 146.726953 70.4184479 147.231704 70.1532688 147.847211 69.8261072 148.649044 69.6185727 148.885562 68.801718 149.104133 68.0477984 148.841165 67.1139466 148.499719 66.4582419 148.395606 66.2431063 148.213855 66.0895108 148.001553 66.0372487 148.00004 65.9712291 147.991612 65.9056427 147.976446 65.841855 147.851375 65.3595232 147.40934 65.0763735 146.978016 65.2023025 145.916191 65.5233914 144.927468 66.0967417 144.078094 66.8839372 143.668463 67.2425797 143.279653 67.6289571 142.903631 68.0314337 142.715468 68.2328048 142.530483 68.4375764 142.346536 68.6438622 142.084112 68.8765928 141.880219 69.1826954 141.7551 69.5317812 141.645673 69.9807485 141.84599 70.3691981 142.048427 70.7340571 142.213485 71.0314912 142.372844 71.3342917 142.544097 71.6273159L142.544097 71.6273159ZM144.118417 69.255414C144.441609 68.9123127 144.825615 68.5254836 145.144073 68.2510026 145.702838 67.7549345 146.330756 67.3669643 147.002205 67.1029216 147.020463 67.2012852 147.05258 67.2957122 147.097335 67.3826096 147.215612 67.5989056 147.292738 67.8405704 147.323819 68.0922701 147.229208 68.1431707 147.13038 68.209161 147.05454 68.2466192 146.450978 68.5223858 145.870954 68.8596203 145.321662 69.2541388 144.830632 69.6272067 144.385059 70.0744737 143.873962 70.4142277 143.860466 70.4232602 143.836419 70.4381372 143.808414 70.4550598 143.728083 70.3099911 143.64765 70.1649225 143.567115 70.0198538L143.511625 69.9201512C143.559971 69.865974 143.608333 69.81185 143.65671 69.7577791 143.809192 69.5886062 143.963094 69.4211511 144.118417 69.255414L144.118417 69.255414ZM143.242863 70.2206139 143.238883 70.2374568C143.190788 70.2797235 143.194226 70.2722053 143.242863 70.2206139ZM137.586207 30.1522521 136.708298 28.9655172C136.306483 29.262838 135.909464 29.5658113 135.517241 29.8744373L136.430447 31.0344828C136.811365 30.7347639 137.196618 30.4406871 137.586207 30.1522521ZM135.517241 30.0914 134.576596 28.9655172C134.195861 29.2836133 133.819754 29.6072005 133.448276 29.9362786L134.421131 31.0344828C134.781862 30.7148117 135.147232 30.4004508 135.517241 30.0914L135.517241 30.0914ZM139.655172 29.179646 138.840677 27.9310345C138.418141 28.2065074 137.999985 28.4882287 137.586207 28.7761985L138.437094 30C138.839217 29.7205705 139.245243 29.4471191 139.655172 29.179646L139.655172 29.179646ZM131.37931 34.1115047 130.316986 33.1034483C129.976363 33.4628722 129.640816 33.8271174 129.310345 34.1961837L130.401977 35.1724138C130.722297 34.8140943 131.048075 34.4604579 131.37931 34.1115047L131.37931 34.1115047ZM141.724138 27.181336 140.969359 25.862069C140.527206 26.1132132 140.089144 26.3707902 139.655172 26.6348L140.44929 27.9310345C140.870679 27.6748454 141.295628 27.4249459 141.724138 27.181336ZM133.448276 32.1008673 132.446477 31.0344828C132.085618 31.373346 131.729896 31.7171972 131.37931 32.0660364L132.410943 33.1034483C132.752253 32.7642454 133.09803 32.4300517 133.448276 32.1008673ZM126.206897 40.5895177 127.479412 41.3793103C127.738692 40.9613592 128.004176 40.5473945 128.275862 40.1374162L127.027463 39.3103448C126.747716 39.732467 126.474194 40.1588579 126.206897 40.5895177L126.206897 40.5895177ZM127.241379 38.4566436 128.451939 39.3103448C128.732166 38.912604 129.018302 38.5190846 129.310345 38.1297867L128.125082 37.2413793C127.824596 37.6422352 127.530028 38.0473233 127.241379 38.4566436L127.241379 38.4566436ZM129.310345 36.1205723 128.186849 35.1724138C127.866308 35.5522233 127.551151 35.9367254 127.241379 36.3259203L128.392162 37.2413793C128.692614 36.8633616 128.998675 36.4897593 129.310345 36.1205723ZM124.137931 42.7247365 125.474462 43.4482759C125.711938 43.0095667 125.956083 42.5743298 126.206897 42.142565L124.892654 41.3793103C124.634389 41.8240159 124.382815 42.2724913 124.137931 42.7247365ZM135.517241 36.198057 136.543697 37.2413793C136.881804 36.9087891 137.232397 36.5788109 137.586207 36.260778L136.606955 35.1724138C136.237411 35.505004 135.870701 35.850113 135.517241 36.198057L135.517241 36.198057ZM133.448276 38.3616544 134.565418 39.3103448C134.872774 38.9485501 135.192696 38.5879993 135.517241 38.2387386L134.443024 37.2413793C134.104191 37.6065866 133.76925 37.9834029 133.448276 38.3616544ZM138.873057 33.1034483C138.439232 33.3691906 138.006124 33.6484186 137.586207 33.9333473L138.426073 35.1724138C138.827358 34.9004824 139.240728 34.6340235 139.655172 34.3801709L138.873057 33.1034483ZM136.704506 33.1034483C136.305031 33.4017041 135.905876 33.7141351 135.517241 34.0327558L136.452216 35.1724138C136.823274 34.8680004 137.20511 34.5692956 137.586207 34.2844773L136.704506 33.1034483ZM129.310345 43.8366341 130.716604 44.4827586C130.924397 44.0298956 131.147611 43.5726886 131.37931 43.1234288L130.004029 42.4137931C129.761454 42.8838641 129.527969 43.3625895 129.310345 43.8366341ZM131.37931 40.527141 132.588828 41.3793103C132.864106 40.9884457 133.153454 40.5972268 133.448276 40.21631L132.278488 39.3103448C131.969629 39.7089682 131.667338 40.1182478 131.37931 40.527141L131.37931 40.527141Z"/><path fill="#000" d="M129.310345 42.6958682 130.615116 43.4482759C130.858562 43.0264661 131.115642 42.6031814 131.37931 42.1902208L130.109837 41.3793103C129.833649 41.8114114 129.564836 42.2543936 129.310345 42.6958682ZM157.241379 40.427393 156.286042 39.3103448C155.919587 39.6237159 155.548378 39.9306144 155.172414 40.2310402L156.090362 41.3793103C156.482393 41.0661312 156.869626 40.7457864 157.241379 40.427393ZM155.172414 40.4963686 154.284209 39.3103448C153.895059 39.6020799 153.501472 39.8878298 153.103448 40.1675945L153.955459 41.3793103C154.365558 41.0910138 154.77121 40.7966999 155.172414 40.4963686Z"/><polygon fill="#000" points="157.293 39.362 157.19 39.259 157.24 39.312"/><path fill="#000" d="M150 43.7651544 149.276434 42.4137931C148.83049 42.6525498 148.382024 42.8875044 147.931034 43.1186568L148.629926 44.4827586C149.088918 44.2474928 149.545609 44.0082913 150 43.7651544ZM141.724138 49.0500042 141.116771 47.5862069C140.630077 47.788194 140.142878 47.9888937 139.655172 48.188306L140.25561 49.6551724C140.745383 49.4545417 141.234893 49.252819 141.724138 49.0500042L141.724138 49.0500042ZM145.862069 46.9406063 145.211954 45.5172414C144.740649 45.7327253 144.267699 45.9455083 143.793103 46.1555903L144.427085 47.5862069C144.906854 47.3734239 145.385182 47.1582237 145.862069 46.9406063L145.862069 46.9406063ZM147.931034 46.9081406 147.247177 45.5172414C146.787991 45.7433534 146.326289 45.9659697 145.862069 46.1850902L146.524352 47.5862069C146.995269 47.3635569 147.464163 47.1375348 147.931034 46.9081406L147.931034 46.9081406Z"/><polygon fill="#000" points="137.892 48.861 139.053 48.861 139.053 50.022 137.892 50.022" transform="rotate(-22.025 138.473 49.441)"/><path fill="#000" d="M151.034483 43.7170561 150.262517 42.4137931C149.833259 42.6680385 149.400926 42.9176037 148.965517 43.1624888L149.707926 44.4827586C150.153066 44.2322046 150.595252 43.9769705 151.034483 43.7170561ZM153.103448 42.6278757 152.277458 41.3793103C151.866292 41.651246 151.451967 41.9178829 151.034483 42.1792209L151.828292 43.4482759C152.257003 43.180184 152.682055 42.9067173 153.103448 42.6278757L153.103448 42.6278757ZM142.336927 49.6551724C142.823486 49.4498026 143.308878 49.2426373 143.793103 49.0336765L143.167999 47.5862069C142.687592 47.793498 142.206305 47.9988793 141.724138 48.2023507L142.336927 49.6551724ZM139.655172 53.290412 140.161226 54.8275862C140.67165 54.6596762 141.197506 54.4712395 141.724138 54.2677688L141.140565 52.7586207C140.639233 52.952233 140.139486 53.1311986 139.655172 53.290412ZM141.724138 53.3986301 142.350666 54.8275862C142.814066 54.6245794 143.299577 54.4016147 143.793103 54.1646999L143.117804 52.7586207C142.640308 52.9874913 142.171541 53.2028869 141.724138 53.3986301L141.724138 53.3986301ZM145.862069 52.4668189 146.602757 53.7931034C147.045847 53.546171 147.488606 53.297377 147.931034 53.0467214L147.183734 51.7241379C146.742914 51.9729429 146.302359 52.2205033 145.862069 52.4668189L145.862069 52.4668189ZM151.034483 48.0939393 151.8636 49.6551724C152.275258 49.4873898 152.688541 49.3241789 153.103448 49.1655399L152.319403 47.5862069C151.889043 47.7504171 151.460737 47.9196612 151.034483 48.0939393ZM150 50.9855359 149.26406 49.6551724C148.818416 49.9013841 148.374075 50.1495802 147.931034 50.3997606L148.677399 51.7241379C149.117394 51.4762726 149.558262 51.2300719 150 50.9855359L150 50.9855359ZM143.793103 52.4328543 144.495209 53.7931034C144.952439 53.5574641 145.408059 53.3164961 145.862069 53.0701994L145.133008 51.7241379C144.687773 51.9649949 144.241138 52.2012337 143.793103 52.4328543L143.793103 52.4328543Z"/><path fill="#000" d="M148.965517 50.3695551 149.686639 51.7241379C150.13425 51.4859881 150.583531 51.2531021 151.034483 51.0254798L150.344059 49.6551724C149.882285 49.8876467 149.422771 50.1257743 148.965517 50.3695551ZM161.37931 43.3636305 160.238045 42.4137931C159.898709 42.8214529 159.588698 43.2526527 159.310345 43.7041504L160.574838 44.4827586C160.816217 44.0911796 161.085048 43.7171999 161.37931 43.3636305L161.37931 43.3636305ZM163.448276 42.6515413 162.54159 41.3793103C162.135303 41.6612585 161.747132 41.9677913 161.37931 42.2971437L162.43914 43.4482759C162.758456 43.1623235 163.095485 42.896232 163.448276 42.6515413L163.448276 42.6515413ZM130.368319 101.377179C131.102632 101.34018 131.449275 100.698089 131.807027 100.150304 132.147512 99.6292311 132.487901 99.1081189 132.828196 98.586967 132.843268 98.5610486 132.856503 98.534094 132.867801 98.5063038 134.234737 99.2159634 135.72769 99.812247 137.19191 98.9530939 138.099141 98.4209504 137.278014 97.0018693 136.367584 97.5358937 135.778855 97.8813072 135.077965 97.741599 134.467182 97.4898004 133.724579 97.1836471 133.036978 96.7297621 132.321757 96.3651113 130.71771 95.547385 129.052288 94.8586769 127.386061 94.1805397 126.975675 94.0134279 126.48982 94.3656745 126.3819 94.7538243 125.903792 96.6182146 126.420394 98.598489 127.747153 99.9872155 128.371983 100.650282 129.414138 101.425272 130.368319 101.377179L130.368319 101.377179ZM131.418173 97.7585506C131.165143 98.1458354 130.912208 98.5330646 130.659367 98.9202382 130.367798 98.7781253 130.079947 98.6283699 129.799795 98.4639485 129.564025 98.3255736 129.332882 98.1795482 129.106367 98.0258723 128.993393 97.9490662 128.881493 97.8704982 128.770667 97.7901683 128.715396 97.7499478 128.660378 97.7092909 128.605613 97.6681974 128.565202 97.6378892 128.372243 97.4878958 128.567594 97.6404367 128.421567 97.5084394 128.237722 97.4262816 128.042395 97.4057327 127.902316 96.9938281 127.831274 96.5613996 127.83216 96.1260979 129.046556 96.6290046 130.249786 97.1585053 131.422697 97.7525033 131.421371 97.7546937 131.419523 97.7564079 131.418173 97.7585506L131.418173 97.7585506ZM124.865897 187.430596C124.895451 187.303129 124.922727 187.174849 124.943772 187.044481 125.050618 186.380015 125.134722 185.650495 124.661879 185.137406 124.258349 184.699497 123.59144 184.704546 123.073998 184.611114 122.528666 184.51246 121.983333 184.413912 121.438001 184.31547 119.257059 183.921201 117.076016 183.527039 114.894871 183.132982 114.432024 183.003744 113.961401 183.3099 113.821089 183.831513 113.702368 184.362797 113.971855 184.906466 114.430916 185.06179 117.18828 186.127873 119.885644 187.387748 122.507655 188.834244 122.687643 188.934231 122.889379 188.971153 123.087598 188.940384 123.133752 188.991446 123.184094 189.03729 123.237927 189.077282 123.774836 189.459237 124.471063 189.364044 124.914445 188.848056 125.087239 188.661544 125.18109 188.398451 125.171782 188.126664 125.162473 187.854878 125.050916 187.60102 124.865897 187.430596L124.865897 187.430596ZM122.197752 186.465438C122.33498 186.49016 122.472318 186.514958 122.609765 186.539835 122.799602 186.57417 122.989328 186.608458 123.178945 186.642696 123.202827 186.647107 123.227063 186.651401 123.251122 186.655725 123.231399 186.769235 123.206359 186.881448 123.176109 186.991875 122.850952 186.813794 122.524833 186.638315 122.197752 186.465438L122.197752 186.465438ZM144.857197 183.143364C143.92888 183.43261 143.011258 183.755817 142.104329 184.112986 140.590936 184.388286 139.077614 184.663635 137.564363 184.939034 136.714617 185.093534 135.764251 185.194975 135.110422 185.849174 134.346249 186.613945 134.42101 187.700118 134.60576 188.692135 134.70586 189.228626 135.381195 189.468644 135.803808 189.199094 137.950082 187.829614 140.215126 186.672582 142.569174 185.743205 143.110167 185.644766 143.651089 185.546328 144.19194 185.447889 144.432847 185.391844 144.62945 185.211506 144.713045 184.969895 144.905791 184.906525 145.097189 184.839463 145.290693 184.779219 146.293628 184.466873 145.866496 182.828827 144.857197 183.143364L144.857197 183.143364ZM132.916414 192.294444C132.847617 191.835143 132.716912 191.38815 132.528134 190.966582 132.358768 190.65362 132.064909 190.434074 131.725031 190.366571 131.385153 190.299069 131.033871 190.390486 130.764992 190.616409 130.129081 191.165455 129.541706 191.772281 129.00986 192.429661 128.429282 193.100395 127.885496 193.803984 127.367695 194.527666 127.220842 194.763391 127.200689 195.06071 127.314301 195.315423 127.171003 195.647447 127.24313 196.036957 127.494825 196.290317 127.839583 196.63886 128.389407 196.63886 128.734166 196.290317L129.919552 194.88124C130.112128 194.652098 130.304798 194.423001 130.497561 194.193947L130.573839 194.103398C130.721632 194.287432 130.86951 194.471466 131.017472 194.6555 131.331297 195.046192 131.645224 195.436885 131.959252 195.827577 132.241473 196.118796 132.677123 196.177112 133.021398 195.969756 133.351551 195.750475 133.512875 195.339423 133.424223 194.943364 133.287041 194.053992 133.117771 193.171018 132.916414 192.294444L132.916414 192.294444ZM94.0319178 155.572074C94.0941208 154.745492 94.1709356 153.852892 94.0127333 153.054946 93.9978148 152.979657 93.805816 152.373471 93.6839647 152.068966 93.6240353 152.13291 93.5624199 152.201602 93.548089 152.222193 92.6631334 153.568433 92.514028 155.255035 93.1495816 156.729898 93.2788097 156.962365 93.2946297 157.239273 93.1926855 157.484377 93.0907414 157.729481 92.8817832 157.916934 92.6233475 157.995121 92.0650111 158.180533 91.447573 158.045764 91.0227783 157.645762 90.6661356 157.294278 90.4252452 156.846392 90.331138 156.359799 90.1643269 155.730773 89.8822808 155.084481 89.2536865 154.86466 88.8159925 154.711583 88.2871527 154.796393 88.0587007 155.199726 87.7949961 155.66473 87.9838784 156.337784 88.2275299 156.857912 88.4810114 157.476498 88.9123055 158.009983 89.4692381 158.393831 89.9732163 158.730403 90.6308728 158.750962 91.1557929 158.446556 91.6462635 158.197574 92.1627393 158.023457 92.7130627 158.199174 93.1265838 158.37118 93.4934354 158.635087 93.7845112 158.969957 93.9023263 159.083386 94.0201329 159.196849 94.137931 159.310345 93.8642382 158.102794 93.9359184 156.846267 94.0319178 155.572074L94.0319178 155.572074ZM94.1343365 151.030379C94.1293399 151.034144 94.1343365 151.036823 94.143502 151.038913 94.1395606 151.032758 94.1361882 151.028868 94.1343365 151.030379ZM103.475502 215.232381C103.209074 215.303136 102.929696 215.219412 102.725781 215.007703 102.521866 214.795995 102.418651 214.482505 102.4488 214.166442 101.014677 213.977593 99.6101362 214.73737 98.8097595 216.134956 98.5751457 216.542273 98.4036536 216.994262 98.3030565 217.470433 98.2862946 217.587152 98.2807073 217.605396 98.2862946 217.525164 98.2806915 217.577381 98.2774863 217.629791 98.2758621 217.682477 98.2750883 217.717344 98.2892149 217.926597 98.2814987 217.922591 98.2878853 217.948921 98.2972159 217.986274 98.3049321 218.017908 98.3032083 218.011285 98.3034933 218.004174 98.3057393 217.997767 98.6139588 217.984892 99.0846926 217.700767 99.400367 217.526407 99.8990771 217.248594 100.376897 216.922622 100.828808 216.551917 101.440997 216.053427 102.193573 216.878478 102.031082 217.627304 101.88749 218.288688 101.657857 219.190325 101.908526 219.803664 101.989771 220.026696 102.137561 220.208035 102.324653 220.314255 102.425472 220.369632 102.545059 220.348561 102.627269 220.260933 102.928057 220.02057 103.046863 219.48376 103.12279 218.969136 103.195669 218.229293 103.327847 217.499003 103.517596 216.787803 103.784615 215.980353 104.107391 215.199394 104.482759 214.452584 104.234614 214.840254 103.878652 215.115833 103.475502 215.232381Z"/><path fill="#000" d="M94.1607592,155.178681 C94.1477222,155.17039 94.1330249,155.165062 94.117704,155.16307 C94.1110833,155.171915 94.1143316,155.188663 94.1607592,155.178681 Z"/><path fill="#000"/><path fill="#000" d="M161.312804 151.599664C161.296627 151.599162 161.275833 151.598513 161.244157 151.597834 161.047804 151.593525 161.247098 151.566728 161.060333 151.586265 161.210157 151.570683 160.874863 151.637911 160.881804 151.635255 160.684094 151.730157 160.507179 151.863583 160.361363 152.027762 159.58729 152.844817 158.995032 153.817551 158.623806 154.881555 158.235571 155.943538 156.669101 155.795831 156.63216 154.61102 156.612337 153.972739 156.568778 153.335785 156.493925 152.701605 156.455945 152.159132 156.354937 151.622967 156.192955 151.104013 156.209455 151.148723 156.155984 151.079193 156.135866 151.045579 156.110131 151.049563 156.022013 151.045756 156.039837 151.034483 155.971514 151.054197 155.82269 151.097579 155.873484 151.075062 155.590014 151.200546 155.426985 151.578386 155.336573 151.931199 155.109739 152.96255 155.118084 154.031999 155.360985 155.059659 155.47326 155.605191 155.643528 156.137065 155.868867 156.646155 155.944242 156.837966 156.055733 157.013413 156.197249 157.162907 156.202866 157.16822 156.214749 157.176483 156.226278 157.184776 156.513484 157.048507 156.849177 157.063058 157.123601 157.223672 157.132189 157.228807 157.139454 157.235772 157.148042 157.241379 157.857845 156.510372 158.537678 155.751672 159.187541 154.96528 159.571364 154.49919 159.941863 154.023066 160.29904 153.536908 160.670719 153.09427 160.988052 152.608428 161.244215 152.089825 161.296839 151.969214 161.33238 151.841805 161.349804 151.711307 161.341892 151.801731 161.29098 151.538781 161.333304 151.645082 161.358657 151.709507 161.432921 151.628556 161.312804 151.599664L161.312804 151.599664ZM155.178047 151.035248C155.174333 151.034669 155.171312 151.03409 155.166667 151.033448 155.172595 151.034266 155.175605 151.034897 155.17816 151.035517L155.178047 151.035248ZM155.162783 155.165478C155.169634 155.169472 155.176085 155.174117 155.182045 155.17935 155.180079 155.170122 155.172766 155.166264 155.162783 155.165478Z"/><path fill="#131517" d="M239.974801,1.30104409 C239.972275,1.16611357 239.974801,1.03103148 239.974801,0.896025179 C239.967919,0.417967459 239.581992,0.0320967579 239.103878,0.0252294713 L10.5658007,0.0252294713 C7.47959286,0.0252294713 4.38716955,-0.0315368391 1.30123963,0.0252294713 C1.16629321,0.0277557869 1.03106885,0.0252294713 0.896122427,0.0252294713 C0.418008129,0.0320967579 0.0320807256,0.417967459 0.0251987585,0.896025179 L0.0251987585,229.407128 C0.0251987585,232.493098 -0.0314984481,235.585031 0.0251987585,238.670571 C0.027725372,238.805502 0.0251987585,238.940584 0.0251987585,239.075514 C0.0320275678,239.553599 0.417981716,239.939507 0.896122427,239.946335 L160.86676,239.946335 C164.723535,239.946613 168.602114,240.066942 172.457448,239.946335 L192.864754,239.946335 C194.839049,239.946335 196.820723,239.996862 198.794463,239.946335 L229.434199,239.946335 C232.520407,239.946335 235.61283,240.003152 238.69876,239.946335 C238.833707,239.943809 238.968931,239.946335 239.103878,239.946335 C239.323741,239.952611 239.536565,239.868487 239.692705,239.713586 C239.70319,239.70482 239.712564,239.69474 239.722468,239.685544 C239.727522,239.679733 239.733257,239.67463 239.738361,239.668668 C239.895736,239.512096 239.981316,239.297401 239.974801,239.075514 L239.974801,10.5644369 C239.974801,7.47851719 240.031498,4.38658485 239.974801,1.30104409 L239.974801,1.30104409 Z M82.104057,201.091729 C79.5065973,201.37636 76.9020631,201.572756 74.2904543,201.680916 C74.5969325,211.584881 74.7736186,221.504131 75.5316026,231.38498 C75.7065201,233.662656 75.9228235,235.937199 76.200372,238.204668 L52.483506,238.204668 C50.698024,238.204668 48.8161265,238.043237 47.0201591,238.168112 C45.7052589,229.653848 45.35742,220.942152 45.0370454,212.348687 C44.8502276,207.333143 44.7249076,202.307947 44.7016627,197.282777 C52.2774101,199.407409 60.1794443,200.084006 68.0480261,200.064251 C68.1174636,200.048892 68.1884153,200.041435 68.259529,200.042019 C69.0227178,200.049093 69.7856035,200.045985 70.5487924,200.038028 C71.7800954,200.013084 73.0091749,199.973876 74.236031,199.920402 C74.236309,199.927476 74.2365869,199.934575 74.2365869,199.941649 C76.8646523,199.831804 79.4871424,199.634659 82.104057,199.350213 C82.5746641,199.2986 82.9749554,199.789994 82.9749554,200.221009 C82.961391,200.696192 82.5792976,201.078207 82.104057,201.091729 L82.104057,201.091729 Z M93.8787328,159.064726 C93.7559177,158.928343 93.62356,158.800864 93.4826609,158.683252 C93.4346552,158.701391 93.4049928,158.723674 93.338088,158.757375 C92.4833347,159.186975 91.6271412,159.370511 90.6901971,159.059699 C88.9755867,158.490773 87.7755211,156.646234 87.5660143,154.901383 C87.4237893,154.011358 87.7301332,153.108506 88.384637,152.488752 C89.0673755,151.91385 89.9818673,151.695775 90.8506118,151.900702 C91.4387355,152.045732 91.9694784,152.364657 92.3735786,152.815859 C92.4661561,151.979337 92.7187096,151.16841 93.1174894,150.427228 C93.5583329,149.611405 94.4045969,148.668584 95.4475829,148.99074 C96.3888222,149.281443 96.7953543,150.463228 96.9643343,151.33943 C97.3022688,153.092693 96.8917446,154.839691 96.9422264,156.601013 C96.9480604,157.398095 97.1484089,158.181703 97.5258741,158.883791 C97.9789078,159.64269 98.514588,160.349099 99.1231233,160.990107 C99.7658096,161.711943 100.439573,162.404498 101.144414,163.067774 C101.496253,163.399025 101.855353,163.722393 102.221712,164.037879 C102.388131,164.18129 102.555966,164.323025 102.725215,164.463084 C102.740804,164.475715 102.758667,164.491429 102.778274,164.508153 C103.283684,164.463589 103.750139,164.782376 103.892157,165.269408 C104.124908,166.173677 103.128134,166.740734 102.376568,166.361332 C101.910494,166.076513 101.478797,165.738943 101.090016,165.355302 C101.0458,165.317408 101.002722,165.277896 100.958481,165.239648 C100.638377,165.413567 100.241233,165.349751 99.9917478,165.084305 L95.0087607,160.17777 C94.6319921,159.806705 94.2553161,159.43569 93.8787328,159.064726 L93.8787328,159.064726 Z M105.178254,124.988291 C106.872727,119.258128 107.443994,113.220966 107.572144,107.267148 C107.665401,102.929641 107.50438,98.5905929 107.17155,94.2644543 C107.501333,94.318584 107.834986,94.3456973 108.169183,94.3455238 C110.273069,94.4118648 112.377763,93.6618017 113.37906,91.6903661 C113.870133,90.6862555 114.106995,89.5768992 114.068825,88.4598149 C114.049902,87.8568662 113.989372,87.255943 113.887667,86.6613308 C113.821296,86.1289862 113.706276,85.6038431 113.544048,85.0924889 C113.102067,83.8456511 112.125986,83.1623838 110.888198,82.808447 C110.195325,82.6100049 109.495352,82.4987459 108.920699,83.0366238 C108.451785,83.4754448 108.081535,84.0803711 107.685185,84.5852552 C107.460422,84.8429906 107.387446,85.1997703 107.49296,85.5250446 C107.489574,85.549272 107.488437,85.5738025 107.4873,85.5983078 C106.944465,85.6195013 106.402077,85.546165 105.884366,85.3815751 C105.83268,85.3529935 105.778953,85.3282694 105.723623,85.3076046 C104.731223,84.9351313 103.855383,84.3061331 103.185438,83.4847669 C103.147539,83.4375501 103.110599,83.3893732 103.073736,83.3411711 C103.057591,83.3199248 103.041143,83.2986532 103.024973,83.2772553 C102.557978,82.6482873 102.213049,81.9373555 102.008061,81.1812976 C101.996161,81.1356471 101.983401,81.0903503 101.972891,81.0445229 C101.964679,81.0109229 101.957301,80.9773482 101.949949,80.9435966 C101.925264,80.8268051 101.902878,80.7094577 101.885874,80.5909735 C101.794509,79.9278419 101.826805,79.2535241 101.981127,78.6021568 C102.126276,77.9981742 102.37087,77.4225323 102.704901,76.8987886 C102.738935,76.845736 102.774939,76.7941991 102.811221,76.7428896 C102.8543,76.6827886 102.89796,76.6229907 102.944171,76.5651633 C102.966911,76.5363886 102.989827,76.5080434 103.013072,76.4798244 C103.076002,76.4048434 103.141205,76.3320855 103.208683,76.2615507 C103.226369,76.2432855 103.243272,76.2247171 103.261135,76.206856 C103.336832,76.1307297 103.415553,76.0578287 103.497298,75.9881529 C103.520037,75.9685992 103.543206,75.9496013 103.566476,75.930755 C103.648111,75.8638581 103.73202,75.7993866 103.819138,75.7391339 C103.842383,75.7231171 103.866486,75.7086666 103.890009,75.6932055 C103.962321,75.6458624 104.036435,75.6009361 104.112351,75.5584266 C104.142418,75.5415508 104.1716,75.5236898 104.202223,75.5076729 C104.284717,75.4642961 104.370344,75.4256182 104.456804,75.3883298 C104.864442,75.2123789 105.303046,75.1193697 105.74702,75.1147298 C107.185896,75.0815278 108.456286,76.0482325 108.807709,77.4437654 C109.079598,78.5304347 110.759619,78.0700895 110.487452,76.980717 C110.018802,75.1645929 108.53404,73.7884875 106.687425,73.4587805 C106.186066,73.3740046 105.675026,73.3627537 105.170421,73.4253826 C105.224566,65.0839181 107.38002,56.1125421 114.157585,50.6749258 C115.387757,49.6942795 116.720525,48.8497263 118.13258,48.1560376 C120.694288,47.0374103 123.464669,46.1546146 126.183735,46.1039101 C126.737377,46.0982194 127.290922,46.124819 127.84137,46.1845767 C127.945138,46.1961978 128.048047,46.2109515 128.150678,46.2257557 C128.203409,46.2333346 128.256139,46.2409136 128.30887,46.2493009 C128.403567,46.2644588 128.498071,46.2809893 128.592381,46.2988925 C128.638011,46.307482 128.683339,46.3169557 128.72902,46.3261767 C130.973341,46.8125003 133.010607,47.9852951 134.558094,49.6818059 C134.683111,49.8169385 134.807294,49.9530058 134.926373,50.0937469 C134.960963,50.1344458 134.996664,50.1744121 135.030975,50.2155153 C135.603266,50.9109814 136.104184,51.6622109 136.526175,52.457873 C137.36501,54.0347486 137.777834,55.7529211 138.109527,57.5235399 C138.189756,57.9514977 138.265445,58.3802387 138.336594,58.8097629 C138.349935,58.8884324 138.363831,58.9669503 138.376868,59.0456955 C138.400669,59.1920955 138.42308,59.3387481 138.445744,59.4854765 C138.490541,59.7794386 138.533367,60.0735523 138.567653,60.3687017 C138.608483,60.7141754 138.642213,61.0617711 138.651031,61.4097458 C138.649616,61.483009 138.64565,61.5620321 138.651309,61.6355226 C138.478311,61.8185392 138.421982,62.0828177 138.505321,62.3204573 C138.508802,62.3596755 138.515246,62.398574 138.524599,62.4368194 C138.660872,62.8938258 139.133314,63.1620955 139.595656,63.0450046 C142.944657,62.4359605 146.264754,61.6620995 149.548265,60.7640701 C150.368151,64.4942255 150.521541,68.3245999 150.576243,72.1359764 C150.635492,76.2400265 150.744086,80.3290451 150.920999,84.4298363 C151.246174,91.9705093 151.136721,100.236993 145.76125,106.154432 C143.289969,108.87487 139.972779,110.747021 136.226821,110.65476 C136.206962,110.654331 136.190236,110.658297 136.171236,110.658878 C135.383109,110.643139 134.592709,110.574828 133.819894,110.492141 C131.28093,110.227489 128.795476,109.586595 126.445164,108.590508 C126.02779,108.36368 125.505964,108.50048 125.253587,108.902887 C125.038143,109.270819 125.131982,109.906213 125.566003,110.094297 C128.903127,111.53593 132.489309,112.31329 136.123912,112.382886 C136.157943,112.389258 136.192297,112.393753 136.226821,112.396352 C136.413917,112.40244 136.607557,112.409387 136.802308,112.412924 C136.857,114.261988 136.775931,116.112573 136.559753,117.949774 C136.310838,119.699298 136.151773,121.46043 136.083183,123.226237 C136.084068,123.253654 136.086429,123.281003 136.090258,123.308165 C136.085886,123.335682 136.082951,123.363408 136.081465,123.391231 C136.07098,124.288553 136.090536,125.185723 136.129673,126.082186 C136.127991,126.394413 136.293617,126.683645 136.563769,126.840247 C136.833921,126.996848 137.167248,126.996848 137.437399,126.840247 C137.707551,126.683645 137.873177,126.394413 137.871495,126.082186 C137.844006,125.450329 137.832939,124.818195 137.828138,124.185934 C140.830134,124.491087 143.833899,124.838178 146.828466,125.254894 C146.795561,125.389931 146.798172,125.531185 146.836046,125.664915 C147.935174,129.452064 149.034208,133.239246 150.13315,137.026463 C148.125672,136.3292 146.118202,135.631827 144.11074,134.934345 C143.403288,134.688712 142.717616,135.593714 143.126978,136.213621 C144.356438,138.061229 145.17599,140.150641 145.53052,142.341351 C142.088917,140.905867 138.52432,139.785109 134.88044,138.992821 C134.417819,138.874418 133.944429,139.143236 133.809155,139.601157 C133.045967,142.520593 134.8577,145.783607 137.707594,146.689569 C137.111667,149.001249 136.515647,151.312828 135.919535,153.624306 C135.066196,151.998192 133.651823,150.595455 132.218703,149.485392 C129.872464,147.668365 126.854298,145.882639 126.272545,142.726083 C126.139317,142.002951 125.002189,141.866454 124.680779,142.518016 C122.812345,146.312515 120.35048,149.784692 117.387987,152.803657 C116.967099,147.985682 116.028205,143.227082 114.587564,138.610261 C114.512704,138.351655 114.323517,138.141572 114.074121,138.040105 C113.824724,137.938638 113.542588,137.956964 113.308416,138.08984 C109.764638,140.378159 106.221054,142.666555 102.677664,144.955026 C103.554534,141.502665 104.431404,138.050353 105.308273,134.598093 C105.376748,134.336332 105.32095,134.057626 105.156979,133.84239 C104.993007,133.627155 104.739104,133.499335 104.468528,133.495811 C101.00668,133.583272 97.5531615,133.80499 94.1079724,134.160964 C96.0672601,132.343937 98.0265394,130.526859 99.9858103,128.709731 C100.174351,128.517813 100.264372,128.249992 100.230024,127.983173 C100.195676,127.716354 100.040758,127.480057 99.8097558,127.342135 C98.0264297,126.432761 96.1895773,125.632386 94.3093183,124.94542 C93.7488396,124.741041 93.1829792,124.551113 92.6148449,124.368713 C95.7897874,124.034203 98.9672566,123.789024 102.114128,123.577698 C102.672636,123.540132 103.231422,123.508376 103.790183,123.474776 C103.697784,123.825934 103.601672,124.176233 103.499041,124.525319 C103.181825,125.602995 104.860734,126.062354 105.178254,124.988291 L105.178254,124.988291 Z M110.459027,87.7937265 C110.370596,86.8479245 109.849507,86.086114 109.256713,85.3836215 C109.46622,85.1161857 109.676005,84.8488763 109.886067,84.5816931 C109.922931,84.5352089 110.000902,84.4606573 110.047114,84.3951752 C110.228828,84.4413816 110.495613,84.5078489 110.533032,84.5191921 C111.262187,84.7405731 111.745276,85.0788973 111.955515,85.8482362 C112.392114,87.4441602 112.631662,89.456219 111.794494,90.9620041 C110.991031,92.4063998 109.403156,92.684345 107.880467,92.5905176 C107.830844,92.5874103 107.672375,92.5915029 107.561532,92.5793261 C107.543088,92.4914608 107.503117,92.2761682 107.501146,92.2638145 C107.406507,91.8710031 107.392711,91.463056 107.460594,91.0647494 C107.493057,90.8630938 107.604056,90.6824946 107.769321,90.562442 C107.997725,90.4781333 108.237928,90.4301239 108.481194,90.4201599 C108.755164,90.3804161 109.021262,90.298208 109.269902,90.1764968 C110.123089,89.7445474 110.544932,88.7142906 110.459027,87.7937265 L110.459027,87.7937265 Z M108.727413,88.0878149 C108.73073,88.15702 108.718649,88.226099 108.69204,88.2900717 C108.669254,88.3903974 108.622354,88.4836575 108.555401,88.561777 C108.521368,88.5980548 108.560783,88.5894148 108.481674,88.6296591 C108.371324,88.6738459 108.256057,88.7045933 108.138358,88.721238 C107.613884,88.8187538 107.144136,88.8876211 106.7064,89.2012379 C106.637508,88.5488422 106.564935,87.8969097 106.488682,87.2454402 C107.139558,87.3327635 107.799478,87.3281882 108.449081,87.2318487 C108.455044,87.2309897 108.459844,87.2280087 108.465807,87.226796 C108.491882,87.2706023 108.520534,87.3125392 108.544916,87.3580381 C108.639277,87.5285132 108.702447,87.714461 108.731455,87.9071328 C108.725695,87.8967749 108.728247,88.0622991 108.727413,88.0878149 L108.727413,88.0878149 Z M143.114168,27.4769322 C143.313938,27.8171577 143.717055,27.9811813 144.097652,27.8771005 C145.8752,27.171349 147.608533,26.0945828 148.591436,24.3993746 C148.628577,24.3353072 148.66203,24.269623 148.696316,24.2042925 C150.383358,23.1106672 152.200405,22.2320098 154.105265,21.5887222 C155.890191,20.9880401 157.811807,20.5011939 159.701587,20.4260107 C160.44378,20.3964528 161.254596,20.4386423 161.778792,20.9572949 C161.8861,21.0542471 161.972778,21.1718191 162.033652,21.3029959 C162.097262,21.4283212 162.144614,21.5612522 162.174561,21.6985664 C162.233809,22.0159338 162.232651,22.3416279 162.17115,22.6585663 C162.121545,22.8874226 162.046422,23.109993 161.947191,23.3221031 C160.315364,24.0364216 158.809589,25.009499 157.487996,26.2037702 C156.856646,26.7750206 157.515789,27.9458921 158.335372,27.6592311 C160.085708,27.0468775 162.099722,26.2952733 163.169642,24.6948777 C165.642109,23.6868325 168.351062,23.4057311 170.977863,23.8846378 C171.954221,24.0525938 172.888884,24.4077448 173.730381,24.9305324 C174.448478,25.367258 175.002428,26.0286525 175.306356,26.8121827 C175.985333,28.8253783 174.635591,30.9329066 173.177836,32.3414538 C171.239604,34.1660797 168.8767,35.4783408 166.303199,36.1593482 C165.839392,36.2871736 165.567038,36.7667416 165.694879,37.2304934 C165.822719,37.6942451 166.302344,37.9665671 166.76615,37.8387417 C168.467723,37.5330575 170.379662,37.2374786 172.020016,37.9134449 C173.379106,38.4736553 174.115943,39.5866994 174.403976,40.9765267 C174.468858,41.266368 174.504,41.5620713 174.508856,41.8590445 C174.544102,42.5890843 174.471117,43.320321 174.292275,44.028998 C174.199736,44.4103097 174.083755,44.785549 173.944992,45.1525768 C173.651071,45.8719536 173.274205,46.5545818 172.822038,47.1866145 C172.317956,47.895781 171.747942,48.555703 171.119606,49.1575701 C168.551935,51.6547825 165.234113,53.2949929 161.980087,54.7062433 C158.539996,56.1614741 155.013327,57.4029431 151.420207,58.423565 C150.93626,58.5655271 150.451563,58.7046682 149.966116,58.8409882 C149.963589,58.8416197 149.960734,58.841544 149.958182,58.8422513 C146.811311,59.7193881 143.634978,60.4912027 140.429135,61.1192195 C140.392272,60.6042301 140.295023,60.0930554 140.233525,59.7309333 C140.185519,59.3814934 140.131728,59.0328871 140.074197,58.6852155 C139.988022,58.136904 139.89314,57.5898304 139.789549,57.0439946 C139.767163,56.9209126 139.744011,56.7979652 139.720092,56.6751526 C139.704511,56.5944957 139.688636,56.51394 139.672465,56.4334852 C139.642971,56.2846516 139.612357,56.1361632 139.580623,55.98802 C139.551693,55.8485421 139.524204,55.7085085 139.494137,55.5693337 C139.349683,54.9090868 139.161301,54.2592204 138.930247,53.6240708 C138.916932,53.5866308 138.903314,53.5492918 138.889821,53.5119529 C138.824888,53.3359192 138.757031,53.161014 138.686252,52.9872371 C138.679456,52.971094 138.674074,52.9546477 138.667277,52.9385045 C138.650829,52.8990182 138.632688,52.8601887 138.615684,52.8210056 C137.564931,50.2866873 135.813873,48.1041077 133.56751,46.5287872 C133.521298,46.4968798 133.476552,46.4635072 133.430012,46.4321051 C133.398556,46.4111367 133.366518,46.3924925 133.335036,46.371802 C133.240642,46.310362 133.145945,46.2494272 133.049832,46.1905388 C132.883985,46.0883409 132.716159,45.9906567 132.546354,45.8974862 C132.510047,45.8775031 132.474624,45.8557515 132.438038,45.8361978 C132.233635,45.7267831 132.025821,45.6255031 131.816314,45.528922 C131.782028,45.5131073 131.74941,45.4944631 131.715123,45.4790273 C131.607945,45.4305473 131.499376,45.3859831 131.390782,45.3409136 L131.377189,45.3351536 C130.846739,45.1157351 130.301286,44.9344988 129.744997,44.7928295 C129.739034,44.7912632 129.732793,44.7899747 129.726552,44.7884337 C129.56495,44.7473726 129.402506,44.7095537 129.239219,44.6749769 C129.176281,44.6615116 129.113065,44.6495369 129.050127,44.6370821 C128.946536,44.6167453 128.843172,44.59704 128.739354,44.579179 C128.646652,44.5630863 128.553951,44.5483579 128.46125,44.5341853 C128.389241,44.5234232 128.317039,44.5132169 128.244643,44.5035664 C128.132941,44.4884085 128.020962,44.4740842 127.908603,44.4617558 C127.856151,44.4560211 127.803698,44.4514232 127.751524,44.44632 C127.627922,44.4341179 127.50432,44.422219 127.380112,44.4134779 C127.315203,44.4088043 127.249713,44.4062527 127.184501,44.4024127 C127.080177,44.3964758 126.976131,44.389099 126.87153,44.3854864 C126.296533,44.3650972 125.720856,44.3756218 125.14699,44.4170148 C125.222384,44.262379 125.294695,44.106278 125.372086,43.9528296 L124.335037,43.4306907 C124.15841,43.7816296 123.986988,44.1351622 123.82077,44.4912885 L123.933583,44.5438611 C121.711765,44.8727674 119.553643,45.5409004 117.534682,46.5248967 C116.886884,46.8044588 116.245882,47.1008966 115.611677,47.4093092 C116.431563,40.6637688 120.662554,34.7089399 125.762169,30.3794161 C128.833622,27.7717784 132.284117,25.6446208 135.819127,23.7288399 C137.592431,22.7678042 139.393527,21.8592148 141.202254,20.9670717 C142.122219,20.5133202 143.03794,20.0455223 143.969805,19.6162761 C144.355428,19.4211635 144.769736,19.2888707 145.197083,19.224394 C145.286408,19.2176426 145.376044,19.2159503 145.46556,19.2193414 C145.470386,19.2193414 145.610992,19.2300529 145.63737,19.228714 C145.774818,19.2515406 145.90973,19.2876335 146.040213,19.3364866 C146.058077,19.3474761 146.183952,19.4038129 146.189637,19.406794 C146.277733,19.4551973 146.363102,19.508406 146.445356,19.5661792 C146.469738,19.5872992 146.569792,19.6648318 146.572344,19.6670297 C146.658796,19.7448401 146.741036,19.8272055 146.818714,19.913775 C146.911631,20.009034 146.991087,20.1165474 147.054876,20.2333286 C147.102882,20.3095728 147.147578,20.3874339 147.190101,20.4667602 C147.203138,20.4911391 147.296698,20.6903391 147.300943,20.6918296 C147.377067,20.8830118 147.437897,21.0799331 147.482859,21.2807391 C147.52017,21.4116884 147.540932,21.5467945 147.54466,21.6829032 C147.557944,21.8803079 147.555198,22.0784645 147.536449,22.2754253 C147.530208,22.3027853 147.509237,22.44436 147.508656,22.4465579 C147.490237,22.5349789 147.467548,22.6226674 147.442029,22.7094716 C147.41171,22.8133789 147.376337,22.9150631 147.336846,23.0149789 C145.861222,24.0070637 144.491848,25.1486552 143.250453,26.4216396 C142.976751,26.7046229 142.921336,27.1337126 143.114168,27.4769322 L143.114168,27.4769322 Z M138.65328,61.6774595 C138.653002,61.6912784 138.653558,61.7050974 138.652699,61.7189163 C138.641935,61.7350089 138.629454,61.7499647 138.61955,61.7667647 C138.61483,61.7248787 138.626401,61.682782 138.651865,61.64919 C138.652699,61.6582342 138.651865,61.6687184 138.65328,61.6774595 L138.65328,61.6774595 Z M111.47086,206.686684 C110.397218,208.15902 109.368044,209.662439 108.383339,211.19694 C107.523212,212.539441 106.699452,213.904393 105.912058,215.291795 C105.534572,215.90429 105.216911,216.551687 104.963466,217.225032 C104.709441,217.982472 104.717096,218.784956 104.495689,219.54707 C104.071218,221.0092 102.534708,222.153293 101.068136,221.228611 C100.450322,220.829003 100.018012,220.198929 99.8675142,219.478758 C99.8211707,219.247279 99.7975275,219.011831 99.7969206,218.775761 C99.7373936,218.803676 99.6787004,218.833866 99.6185923,218.860796 C99.0218314,219.126262 98.3536179,219.446902 97.6828526,219.409158 C96.3024879,219.331626 95.8590925,217.951853 96.1108442,216.783533 C96.3660927,215.735355 96.9171512,214.78257 97.6984418,214.038565 C99.2289543,212.577236 101.432849,212.063114 103.452097,212.696359 C105.688992,210.44137 107.815162,208.08414 109.830608,205.624671 C110.025711,205.410516 110.322787,205.320987 110.603752,205.391669 C110.795131,205.358357 110.992107,205.395131 111.158571,205.495248 C111.535491,205.715669 111.74808,206.306499 111.47086,206.686684 L111.47086,206.686684 Z M142.5381,200.438903 C141.90872,200.597354 141.285885,200.74095 140.766211,201.152385 C139.741922,201.962827 139.812793,203.246221 139.852486,204.421766 C139.86999,204.697553 139.863921,204.97433 139.834345,205.249084 C139.844275,205.178347 139.782171,205.464377 139.771407,205.500806 C139.756955,205.549968 139.740507,205.599332 139.722366,205.647635 C139.715569,205.662667 139.70564,205.68505 139.696847,205.702204 C139.5285,206.030629 139.267485,206.302452 138.94614,206.483997 C138.52354,206.726364 138.065803,206.90152 137.589348,207.003181 C137.590485,206.318322 137.609561,205.633741 137.655975,204.950448 C137.680921,204.581505 137.71258,204.213135 137.75095,203.845337 C137.769917,203.661522 137.790702,203.477834 137.813307,203.294271 C137.820685,203.23305 137.828341,203.171922 137.836274,203.110886 C137.839963,203.08153 137.842793,203.060991 137.844789,203.045202 C137.846785,203.029413 137.849842,203.008065 137.854415,202.976057 C137.862922,202.91497 137.871613,202.853926 137.88049,202.792924 C137.945702,202.3442 137.769925,201.835097 137.272385,201.721766 C136.85989,201.627787 136.271062,201.847754 136.2011,202.329952 C135.960667,203.951448 135.841636,205.588629 135.845,207.227846 C134.724623,207.305101 133.597703,207.341656 132.469065,207.347341 L132.5958,201.914095 C132.5958,201.433154 132.205874,201.043274 131.724876,201.043274 C131.243878,201.043274 130.853953,201.433154 130.853953,201.914095 C130.811741,203.721252 130.76969,205.528461 130.727799,207.33572 C129.879564,207.318566 129.033022,207.286684 128.189613,207.246414 L128.189613,202.561362 C128.187032,202.082259 127.797869,201.695231 127.318702,201.695231 C126.839535,201.695231 126.450372,202.082259 126.447791,202.561362 L126.447791,207.142355 C125.623071,207.087938 124.799395,207.020898 123.976763,206.941235 L123.976763,202.885387 C123.976763,202.404446 123.586837,202.014566 123.10584,202.014566 C122.624842,202.014566 122.234916,202.404446 122.234916,202.885387 L122.234916,206.765353 C121.747583,206.712048 121.25939,206.654928 120.777717,206.570827 C120.534434,206.548444 120.298231,206.476893 120.083429,206.360511 C120.021135,206.319322 119.965172,206.269281 119.917304,206.211964 C119.913893,206.200343 119.873341,206.134002 119.872229,206.131602 C119.858611,206.10596 119.84949,206.089084 119.841607,206.074355 C119.839261,206.061261 119.835752,206.048401 119.831121,206.03593 C119.687382,205.600798 119.738117,205.071156 119.739531,204.53497 C119.761704,203.965887 119.681526,203.397444 119.502813,202.856688 C119.104614,201.856559 118.363325,201.030843 117.411712,200.527425 C115.41642,199.399931 113.078393,199.328638 110.882665,198.888554 C108.54009,198.419139 106.262423,197.6138 104.656685,195.763198 C104.039834,195.018278 103.541186,194.182964 103.178212,193.286525 C102.788485,192.27361 102.513104,191.220346 102.357189,190.146315 C102.208606,189.074237 102.136231,187.992974 102.14042,186.91066 C102.138081,185.802997 102.196445,184.695764 102.292204,183.592522 C102.521848,180.943933 102.862031,178.277634 103.622112,175.723049 C103.986388,174.465454 104.486495,173.251246 105.113598,172.101879 C105.663894,171.110173 106.338045,170.13307 107.25321,169.443235 C108.301881,168.652498 109.53171,168.471791 110.815406,168.462014 C113.749706,168.448396 116.67475,168.792027 119.525982,169.485323 C120.245789,169.658401 120.95314,169.911108 121.674639,170.068725 C122.44038,170.236245 123.258573,170.277197 124.036215,170.380801 C127.003899,170.776523 129.999957,171.16022 132.999957,170.985601 C134.489287,170.898637 135.966602,170.666805 137.410969,170.29339 C138.717077,169.956203 140.001607,169.541483 141.310267,169.213365 C143.662746,168.623344 146.276932,168.336885 148.331448,169.901357 C150.186411,171.313719 151.115776,173.694872 151.370585,175.981036 C151.504333,177.370755 151.522638,178.769168 151.425311,180.161912 C151.255897,183.133799 150.842294,186.086719 150.188685,188.990803 C149.672422,191.2801 149.037383,193.547418 147.952405,195.592495 C146.988805,197.408689 145.727494,199.016234 143.903153,199.940613 C143.469042,200.159173 143.010934,200.326399 142.5381,200.438903 L142.5381,200.438903 Z M156.964355,215.09555 C156.737887,215.716159 156.28776,216.229815 155.702211,216.535828 C155.785008,217.37747 155.56019,218.204763 154.78452,218.738775 C153.863721,219.372325 152.623381,219.211019 151.73093,218.614481 C149.920485,217.404375 148.94069,215.07155 149.122429,212.932494 C149.131937,212.455546 149.516349,212.071179 149.993353,212.061673 C150.005253,212.061673 150.017154,212.064932 150.029054,212.065513 C149.998153,212.031054 149.966697,211.996772 149.936075,211.962186 C148.379052,210.206822 147.007915,208.295037 145.844578,206.257387 C145.337689,205.369286 146.490102,204.558263 147.212183,205.20217 C149.026071,206.82094 150.537013,208.749892 151.674183,210.898608 C151.743168,211.030924 151.779795,211.177709 151.781058,211.326919 C151.867676,211.357253 151.962197,211.356207 152.048121,211.323963 C153.334648,211.023913 154.683253,210.952595 155.801102,211.790675 C156.785471,212.528258 157.410303,213.882237 156.964355,215.09555 L156.964355,215.09555 Z M161.610798,152.895135 C161.034761,153.837913 160.374432,154.726535 159.637917,155.550091 C158.937796,156.392646 158.195187,157.19898 157.412981,157.965956 C157.238732,158.149419 156.988105,158.239887 156.736834,158.210023 C155.84171,160.845162 154.756161,163.411742 153.488771,165.889467 C153.242993,166.300754 152.713176,166.439649 152.297195,166.201845 C151.891217,165.95211 151.753577,165.427214 151.984779,165.010435 C153.190245,162.652498 154.222155,160.209811 155.072301,157.701804 C155.010045,157.665691 154.949852,157.626135 154.892002,157.58332 C154.345394,157.166048 154.075906,156.593459 153.831127,155.967842 C153.412186,154.881566 153.224012,153.719978 153.278582,152.557013 C153.332449,151.425224 153.58079,150.179977 154.592042,149.511287 C155.084977,149.192315 155.686658,149.088057 156.258192,149.22258 C156.862043,149.393594 157.341044,149.854095 157.535648,150.450697 C157.612891,150.666685 157.670859,150.889085 157.708873,151.115295 C157.858291,150.923153 158.017351,150.738706 158.185442,150.562664 C158.942946,149.778167 160.081767,149.335683 161.109467,149.880559 C162.268399,150.495135 162.162079,151.904314 161.610798,152.895135 L161.610798,152.895135 Z M194.965203,238.204668 L173.517741,238.204668 C173.552912,236.719565 173.593077,235.234614 173.638236,233.749814 C173.626327,229.734909 173.614326,225.720105 173.602231,221.705402 C173.57865,213.827121 173.555068,205.948831 173.531486,198.070533 C173.507669,190.143915 173.483944,182.217339 173.460307,174.290805 C173.456926,173.168135 175.198622,173.170257 175.202159,174.290805 L175.24213,187.630686 C175.253196,191.35658 175.264347,195.082483 175.275582,198.808394 C181.779389,198.381068 188.180008,197.14047 194.252345,194.747999 C195.076197,204.718002 195.856946,214.691694 196.750559,224.655735 C197.155954,229.17592 197.584897,233.694538 198.090675,238.204668 L194.965203,238.204668 Z M238.232954,7.31013826 L238.232954,229.407128 C238.232954,232.337907 238.184392,235.273763 238.228052,238.204795 L199.831511,238.204795 C198.84636,229.442421 198.124557,220.649781 197.397094,211.863256 C196.89103,205.746322 196.389076,199.628983 195.891232,193.511241 C195.891463,193.509508 195.891556,193.507759 195.89151,193.506011 C195.16094,184.710694 194.43517,175.909567 193.430993,167.140473 C192.510194,159.129526 191.573781,150.66503 188.156182,143.258151 C187.445334,141.63528 186.577973,140.085552 185.566403,138.630951 C185.54571,138.601469 185.524739,138.572416 185.503768,138.543061 C185.396867,138.39368 185.29454,138.240888 185.183672,138.094614 C184.325778,136.978393 183.341955,135.964863 182.251714,135.074126 C182.19302,135.025217 182.13463,134.97661 182.075381,134.928282 C181.973576,134.84552 181.871037,134.763457 181.767766,134.682093 C181.649268,134.588703 181.530012,134.496484 181.409998,134.405436 C181.34989,134.359962 181.290059,134.314716 181.229673,134.269924 C181.076038,134.155398 180.920963,134.042724 180.764448,133.931903 C180.737514,133.912754 180.711389,133.892771 180.684228,133.873798 C180.666542,133.861343 180.648502,133.849722 180.630942,133.837242 C180.456572,133.715204 180.280703,133.595246 180.103334,133.477369 C176.9814,131.385579 173.46683,129.873655 169.904078,128.650186 C168.591755,128.195803 167.266293,127.781133 165.935627,127.397411 C165.651838,127.314927 165.367139,127.235272 165.082844,127.155466 C164.954139,127.119618 164.825711,127.081344 164.697005,127.046051 C164.610241,127.022228 164.523225,127.00083 164.436461,126.97731 C163.902908,126.831744 163.368108,126.690624 162.832061,126.55395 C162.769132,126.538085 162.706379,126.522161 162.643803,126.506178 C160.709479,126.01678 158.762765,125.578304 156.803663,125.19075 C156.798862,125.189765 156.794036,125.188628 156.788933,125.187618 C156.507417,125.13123 156.217109,125.049302 155.929353,125.015424 C154.610461,124.760435 153.288874,124.522607 151.964591,124.301942 C147.284545,123.517294 142.573877,122.928384 137.853455,122.447197 C137.928016,120.939568 138.116223,119.451214 138.301373,117.949698 C138.523989,116.05289 138.603692,114.142033 138.53981,112.233278 C144.544079,111.250541 149.173947,105.968192 151.168961,100.365734 C152.644857,96.2210099 152.848401,91.6878398 152.759666,87.3297434 C152.66982,82.9005564 152.380068,78.4829653 152.339238,74.0512267 C152.296715,69.449543 152.225843,64.8012992 151.226795,60.2926849 C155.046126,59.2198418 158.796205,57.9142684 162.456,56.3832873 C165.960085,54.8929633 169.496485,53.1289382 172.269695,50.4678184 C174.8643,47.9780334 176.712164,44.563819 176.148578,40.8788593 C175.861656,39.0038532 174.748076,37.2726449 173.000847,36.4544724 C172.452332,36.2007526 171.872633,36.0207716 171.276863,35.9192219 C172.202016,35.3715024 173.077308,34.7436537 173.892666,34.0429021 C175.739949,32.4513233 177.481518,30.0055214 177.207355,27.439568 C176.932662,24.8706335 174.877818,23.2275936 172.543479,22.4865242 C170.191834,21.7399474 167.558951,21.7917874 165.163924,22.2909369 C164.749736,22.3771853 164.340248,22.4816484 163.935231,22.5999305 C163.997537,22.0975152 163.957617,21.5876909 163.81787,21.1010928 C163.500146,20.0587716 162.68885,19.2401238 161.649354,18.9129245 C160.651341,18.5724783 159.551734,18.6623393 158.52603,18.796714 C155.277438,19.2043658 152.137702,20.2334899 149.278195,21.8279137 C149.273591,20.9373165 149.015787,20.0663914 148.534865,19.3167561 C148.069694,18.5677395 147.373126,17.9906514 146.550615,17.6728573 C145.604575,17.3177331 144.559037,17.4971015 143.648976,17.8701373 C142.613064,18.2948614 141.615987,18.8269793 140.611557,19.3212277 C139.629782,19.8043771 138.65104,20.2937328 137.675329,20.7892949 C133.812617,22.7609579 130.01115,24.8979682 126.553176,27.5289743 C123.270221,30.0269698 120.333134,32.9379674 118.044149,36.3843671 C115.83935,39.7035163 114.315524,43.4706822 113.859369,47.441065 C113.806639,47.8999197 113.771493,48.3602649 113.749386,48.8214691 C110.536373,51.2576823 107.999763,54.4749296 106.380593,58.1674977 C104.176654,63.1179899 103.402701,68.5640441 103.428498,73.9524225 C102.807536,74.2655329 102.254073,74.6974606 101.799489,75.2237151 C101.288253,75.8224415 100.881593,76.5030384 100.596594,77.2369107 C100.5711,77.300397 100.54303,77.3627717 100.519204,77.4271169 C100.496237,77.4906033 100.47754,77.5552264 100.456544,77.6194454 C100.41205,77.7523801 100.370361,77.8861737 100.334079,78.0218116 C100.317075,78.0853232 100.302622,78.1489611 100.287589,78.2128769 C100.256107,78.3449863 100.228508,78.478039 100.204792,78.6120347 C100.191477,78.6863084 100.178995,78.7605568 100.168232,78.8351084 C100.151506,78.9514705 100.139327,79.0684136 100.128817,79.1859126 C100.120049,79.2770368 100.110398,79.3676052 100.105294,79.4590325 C100.101327,79.5395462 100.102464,79.6204641 100.101049,79.7012557 C100.099053,79.8112515 100.091675,79.921222 100.095086,80.0310662 C100.175454,81.9012712 100.932701,83.678571 102.225881,85.0321604 C102.918576,85.7724471 103.758163,86.3600387 104.690946,86.7573561 C105.478213,93.4463576 105.960443,100.18581 105.837144,106.923569 C105.746413,111.875602 105.347815,116.868334 104.235069,121.704031 C95.1386286,122.229858 85.9177274,123.094439 77.0495162,125.262548 C77.0267767,125.268081 77.0038856,125.273032 76.9812977,125.278565 C76.4562421,125.405563 75.9317677,125.539761 75.4081523,125.677723 C75.2014753,125.732443 74.9948994,125.78782 74.7884245,125.843853 C74.6109215,125.892308 74.4335364,125.941672 74.2562692,125.991946 C73.9416048,126.08067 73.6273025,126.17171 73.3133623,126.265066 C73.3034327,126.268047 73.2935031,126.270877 73.2832956,126.273858 C71.6156486,126.762329 69.9819001,127.359827 68.3926057,128.062489 C68.037945,128.21955 67.6850023,128.380982 67.3357233,128.550624 C66.4832882,128.969524 65.6598594,129.445021 64.8709613,129.973925 C64.8153758,130.01048 64.7597903,130.047769 64.7045333,130.084906 C64.5338605,130.200131 64.3637689,130.315356 64.1962292,130.434851 C64.075735,130.520594 63.9572368,130.60947 63.8381575,130.697765 C62.5668458,131.649149 61.3657502,132.690895 60.2442014,133.81491 C60.2269194,133.832063 60.2093341,133.848939 60.1920521,133.866093 C60.1314134,133.926472 60.0687281,133.985133 60.008342,134.045941 C59.8779182,134.177183 59.7520424,134.312417 59.6233367,134.445352 C59.5397058,134.532105 59.455519,134.618404 59.372444,134.705865 C59.1669461,134.921714 58.9642443,135.13965 58.7643386,135.359676 C58.7388198,135.387886 58.713301,135.415996 58.6877822,135.444004 C52.6891723,142.058884 48.8879834,150.418512 46.5465454,159.102545 C46.5181968,159.206124 46.490682,159.309703 46.4629145,159.413105 C46.4234993,159.561627 46.3835283,159.710174 46.3449722,159.858848 C45.1429398,164.510383 44.3000662,169.247376 43.8237909,174.028017 C43.8209611,174.052801 43.8184092,174.077609 43.8158573,174.102266 C43.8050687,174.206881 43.7951644,174.31147 43.7846789,174.416085 C43.3829474,178.328792 43.1774074,182.265019 43.0753574,186.203267 C42.8474064,193.51306 42.9523114,200.842558 43.1578514,208.139719 C43.4274663,217.706876 43.8263428,227.343153 45.0856575,236.839195 C45.1460435,237.294858 45.2096384,237.750058 45.276442,238.204795 L4.48694551,238.204795 C3.59391398,238.204795 2.6680112,238.140449 1.7670461,238.176879 L1.7670461,4.48637432 C1.7670461,3.59352387 1.83139894,2.66762922 1.79511677,1.76684615 L235.513054,1.76684615 C236.406086,1.76684615 237.331989,1.8312672 238.232954,1.79483773 L238.232954,7.31013826 Z"/><path fill="#000" d="M104.464655 214.168717C104.476728 214.148121 104.4888 214.12769 104.500862 214.107145 104.493621 214.114459 104.486379 214.121772 104.479138 214.129086 104.474991 214.142535 104.470157 214.155763 104.464655 214.168717L104.464655 214.168717ZM153.124583 212.113709C152.549575 212.193523 152.040541 212.443928 151.450549 212.255303 151.310121 212.209204 151.175859 212.14664 151.050666 212.068966 151.056373 212.106864 151.058188 212.145231 151.056083 212.183486 150.925363 213.472951 151.392729 214.751671 152.328437 215.664671 152.52177 215.860513 152.752254 216.017252 153.00688 216.12604 153.225124 216.232447 153.481124 216.233902 153.700606 216.129982 153.818036 216.063557 153.897232 215.947115 153.914782 215.815078 153.924095 215.746563 153.925394 215.677225 153.918655 215.608419 153.273568 215.440387 153.196989 214.504284 153.760864 214.190739 153.866672 214.132018 153.972381 214.073251 154.07799 214.014438 154.303549 213.882426 154.582686 213.875014 154.815169 213.994864 155.160938 213.769783 155.273487 213.321833 155.074066 212.964448 154.752053 212.251746 153.906714 212.005124 153.124583 212.113709Z"/></g></svg>