<svg xmlns="http://www.w3.org/2000/svg" width="31" height="31" viewBox="0 0 31 31"><g fill="#7F8091"><path d="M15.4987024,31 C6.95261616,31 0,24.0473838 0,15.5 C0,6.95261616 6.95261616,0 15.4987024,0 C24.0460862,0 31,6.95261616 31,15.5 C31,24.0473838 24.0460862,31 15.4987024,31 Z M15.4987024,1.29761406 C7.66760151,1.29761406 1.29761406,7.66889912 1.29761406,15.5 C1.29761406,23.3311009 7.66889912,29.7023859 15.4987024,29.7023859 C23.3311009,29.7023859 29.7023859,23.3311009 29.7023859,15.5 C29.7023859,7.66889912 23.3311009,1.29761406 15.4987024,1.29761406 Z"/><path d="M15.8058691,31 C13.9814621,31 12.1699484,30.6637341 10.4190334,30.0016292 C10.1676134,29.9064842 10,29.6627566 10,29.3903552 L10,24.1795373 C10,21.649723 12.037147,19.5904203 14.5397435,19.5904203 L15.4487237,19.5904203 C16.3989625,19.5904203 17.1725627,18.8110134 17.181588,17.8504399 C16.1591465,17.1362007 15.5376877,15.9631802 15.5376877,14.7028348 L15.5376877,10.8383838 C15.5376877,8.72173346 17.239608,7 19.3321964,7 L21.8721835,7 C23.9660613,7 25.6679816,8.72173346 25.6679816,10.8383838 L25.6679816,14.7028348 C25.6679816,15.9644835 25.0465228,17.1375041 24.0215026,17.8504399 C24.0305279,18.8110134 24.8067067,19.5904203 25.7595243,19.5904203 L26.6697938,19.5904203 C27.8353513,19.5904203 28.9480462,20.0439883 29.8002957,20.8677094 C29.994985,21.056696 30.0542944,21.3460411 29.9472797,21.5975888 C27.5065712,27.3088954 21.9559902,31 15.8058691,31 Z M11.2893336,28.9315738 C12.7643312,29.4398827 14.2818768,29.6966439 15.8058691,29.6966439 C21.2816688,29.6966439 26.237867,26.5034213 28.5664034,21.5219941 C28.0132793,21.115347 27.3531405,20.8950798 26.6685044,20.8950798 L25.7582349,20.8950798 C24.0898373,20.8950798 22.7308797,19.5226458 22.7308797,17.8347996 L22.7308797,17.4881069 C22.7308797,17.2495927 22.859813,17.0306289 23.0661064,16.9172369 C23.8758079,16.4688824 24.378648,15.6217009 24.378648,14.7041382 L24.378648,10.8396872 C24.378648,9.44248941 23.2543491,8.3046595 21.8721835,8.3046595 L19.3321964,8.3046595 C17.9500308,8.3046595 16.8270213,9.44248941 16.8270213,10.8396872 L16.8270213,14.7041382 C16.8270213,15.6203975 17.328572,16.4688824 18.1369842,16.9172369 C18.3432775,17.0319322 18.4709216,17.2508961 18.4709216,17.4881069 L18.4709216,17.8347996 C18.4709216,19.5226458 17.115832,20.8950798 15.4487237,20.8950798 L14.5397435,20.8950798 C12.7475698,20.8950798 11.2893336,22.3691756 11.2893336,24.1808407 L11.2893336,28.9315738 L11.2893336,28.9315738 Z"/></g></svg>